<?xml version="1.0" encoding="UTF-8"?>
<svg version="1.1" viewBox="0 0 867 867" width="1280" height="1280" xmlns="http://www.w3.org/2000/svg">
<path transform="translate(412,2)" d="m0 0h38l24 3 23 6 23 8 18 8 19 11 13 10 12 11 12 13 7 9-6-8-8-10-11-12-10-9-16-11-18-10-20-8-30-10v-1l11 1 15 4 25 10 16 8 15 9 13 11 4 3-12-12-13-9-14-8-19-9v-1l9 1 13 5 18 10 13 10 12 12-6-7-7-7-15-11-8-5 3-1 16 6 3 1 5 1 10 4 6 2 12 5 10 17 9 11 8 5 12 4 28 5 10 4 9 7 5 4-5-6 4 2 20 16 28 28 3 1 9 12 3 25 3 4 4 8 8 6 8 4 13 5 4 4 4 5 5 9 9 17 1 12 1 7-2 1-1 7h-2v3l-3 2-6-1v3l9 5 4 3 1 4 4 2 2 5 1 6 2 8 3 14 1 4-2 5-2 1-2 5h-2v14l-2 7 1 8v11l-2 11-1 4 3-3v6l-1 5v2l1 5 3 12v17l-3 10-6 8-7 6-6 3h-3l1 9v12l-3 15-6 12-3 4-1 16-4 12-5 9-7 8-11 7-13 5v2h-3l-2 4v4 5l1 5-4 2 1 9 2 5-4-1 4 6v2l-5 2 3 1v3l-4 1-1 3 2 10 4 3-2 4h-7l1 11 4 6v2h-2l-1 4h-9l1 2 1 9v9l-3 1v7l-1 6 13 5 10 9 11 14-1 4-5 5-8 9-5 3-1 3-11 9-4 5-8 7-13 11-16 12-24 16-14 8-10 6-9 5-5 2-14 7-27 11-30 10-27 7-6 1-16 3h-7l-5 1-6 2-14 1h-9l-7 1h-45l-6-10-3-13v-8l3-12 6-10 5-4 7-3 17-3 6-3 3-1 2-5 1-3v-6l-3 10-6 5-8 2-16 2-6 4-3 1-8 16-2 8v12l4 11 5 10-22-1-2-1h-7l-2-1-10-1v-13l4-12-4 9-1 4v11h-3v-13l4-12-4 8-1 4v12l-2 1-16-3-9-2-7-2-3-12v-17l3-10-3 4 1-6 6-10 2-3-7 8-4 8-2 8v11l4 18-14-3-6-3-6-1-1-4-1 3-9-3-2-15-1-1 2 6v9l-9-2-7-3-12-5-10-5-8-3-11-6-2-2-6-2-4-3-9-5-6-4-9-5-9-7-8-5-10-8-3-2-6-5-7-5-5-5-12-11-5-5-5-4-4-5 1-2v-1l1-3h1l1-3 1 1 1-5 3 4v-1-6l2 1 2 5 1 3v-3l-1-6h2l2 5 2 1-1-2v-6l2 2 2 3-1-5h3l1-2-16 2-10 6-6 5-2-3 5-6 9-6 7-2h12l14 4 7-1 3-2-1-4-14-11-10-16-2-5v-9l4-8-11-7-4-8-1-3v-7l3-9-9-5-4-9-2-7v-17l2-9v-19l1-9-12-6-12-11-4-6-3-12-7-11-4-11v-3l-7 1-11-4-8-7-5-10v-8l3-9 3-5-2-5-4-11v-10l4-15 4-8-8-10-3-8-1-5v-9l4-13 7-13 8-10 7-8 7-7h-14l-8-3-8-6-3-3-2-6 1-5 4-10 9-10 8-11 4-13 1-6v-28h1l3-18 5-13 5-7 1 2-3 11-1 17 4 15 8 15-6-15-3-13v-12l3-15 5-12 8-12 10-11 7-8 11-12 7-8 7-7 1 2-5 10-7 9-14 14-8 7-11 14-7 15-3 15v9l4 16 8 16 9 15 4 7h2l5 12 1 5 1 18v-16l-4-16-7-12-10-15-7-14-3-15 1-14 4-12 6-10 9-10 3-4-4 3 1-4 15-15 8-7 11-16 8-16 9-8 1 2-10 24-5 10 7-8 12-23 7-11 9-8 22-12h-2l-3-1 7-4h2l1-3 22-12 4-2h2l11-7 5-1-5 5-13 11-10 12-10 15-6 13 7-13 12-17 12-13 14-11 15-9 11-5 19-7 13-4 3 1-27 11-23 12-16 11-12 11-7 7-10 14-9 16-7 17 8-16 12-20 11-14 11-11 15-10 14-8 21-10 22-8 28-8 20-4 34-4zm-3 4-29 3-30 5-31 9-27 10-17 8-17 10-12 9-11 10-13 18-12 22-8 19-2 9 2-2 11-23 9-15 9-10 7-8 11-9 11-8 16-9 23-10 25-8 28-7 33-5 26-3 13-1h31l24 4 19 5 21 8 16 8 14 8 14 11 13 12 11 12 10 13 10 14 7 10 1-2-14-21-13-17-12-14-10-10-14-11-15-10-23-11-20-7-21-5-18-3-20-1-40 3-29 4-24 5-27 8-24 9-25 12-15 10-10 8-11 10 4-6 11-11 14-10 22-12 24-10 29-9 27-6 25-4 35-3h29l26 4 21 5 22 8 21 10 17 11 14 11 16 16 9 11 12 16v-3l-10-14-13-16-11-12-10-9-15-11-14-8-12-6-21-8-26-7-22-3zm14 17-40 4-32 5-27 7-27 9-25 11-17 10-11 9-12 11-11 14-12 22-7 16 1 3 8-16 10-18 9-12 9-10 10-9 15-10 25-12 25-9 26-7 30-5 58-7h27l21 3 19 5 21 8 16 8 10 6 13 10 12 11 14 14 9 11 14 18 10 15 1-2-16-24-13-17-12-14-17-17-16-12-18-10-25-10-18-5-24-4zm151 1 1 2 2-1zm3 2m1 1 1 2 2-1zm3 2m1 1m-158 2-58 7-27 5-22 6-25 9-20 9-14 8-13 10-9 8-11 14-9 15-9 17-5 14 1 4 8-18 9-17 12-17 13-14 13-10 18-10 19-8 27-9 22-5 39-6 37-5 6-1h33l22 4 16 5 15 6 19 10 14 10 13 11 10 9 12 13 14 17 13 18 10 15 3 3-2-5-9-14-14-20-10-13-12-14-7-8-10-10-14-11-10-7-17-9-24-9-20-5-14-2zm161 0m1 1m1 1m-153 6-48 6-39 6-29 7-26 9-25 12-12 8-13 11-11 12-10 15-13 25-7 20 1 4 6-15 11-22 14-21 10-12 11-9 10-7 21-11 25-9 22-6 33-6 57-9 6-1h32l20 4 18 6 16 7 18 11 13 10 14 12 11 11 7 8 11 13 12 15 12 17 11 17 1-2-11-18-10-14-13-17-11-14-9-10-7-8-10-10-11-9-12-9-14-8-15-7-21-7-21-4-10-1zm155 8m-355 1m356 0m-357 1m193 0-82 13-23 5-26 9-20 9-15 9-11 9-12 12-11 15-13 23-8 19-8 23 1 3 10-25 8-16 9-16 10-14 11-13 11-10 16-10 19-9 28-9 8-2 1 2-9 2-23 8-20 9-16 10-11 9-8 8-10 13-11 17-11 21-10 26-4 11 1 3 14-34 11-20 11-16 11-14 11-11 14-10 19-10 23-9 4-1v2l-9 3-24 11-18 11-10 8-12 12-12 16-11 18-9 17-9 23 1 3 16-33 12-19 10-13 11-12 7-7 13-9 17-9 25-9 6-2-3 3-21 8-16 8-12 7-11 9-14 14-12 16-11 18-8 16-8 19 1 3 16-32 14-21 11-13 8-9 17-13 16-9 16-7 15-5 16-4v2l-12 3-19 7-20 9-16 10-11 9-10 10-13 17-10 15-8 15-10 24 1 3 10-21 11-19 10-14 9-11 11-11 17-13 22-12 17-7 18-5 6-2v3l-10 2-24 9-16 8-11 6-16 12-11 10-9 11-10 13-10 17-11 24-2 5 1 3 11-22 10-17 12-16 12-13 10-9 17-12 17-9 24-9 19-5 8-1-8 3-19 6-22 8-19 10-14 10-10 9-6 5-7 8-10 13-8 13-13 26 1 3 10-18 10-15 11-14 7-8 8-7 12-10 18-11 21-10 21-7 23-5 14-2v2l-9 1-24 5-23 8-20 9-15 9-12 9-12 11-9 9-12 16-11 18-9 19 1 3 9-17 13-21 3-3-16 29-7 14 1 3 15-29 12-20 11-13 11-10 15-11 20-11 19-8 30-8 27-4h12l-33 5-23 6-15 5 4 1 6-1 28-1v1l-25 2-20 4-18 6-14 8-11 8-13 11-9 11-9 15-14 27-3 6 1 3 16-27 12-17 11-13 13-11 15-10 15-7 19-5 17-2 21-1v1l-31 3-18 4-16 6-14 8-13 10-15 15-12 17-9 15-12 23-3 6 1 2 12-19 11-16 10-13 9-11 9-10 10-9 13-8 16-8 14-4 7-1-4 2-17 5-16 8-15 10-10 9-9 11-10 13-18 27-9 15 1 2 14-19 11-14 12-14 7-7 13-10 16-9 31-14 15-5-1 2-16 6-36 17-13 8-10 9-12 13-11 14-12 16-12 19-1 4 3-3 14-21 11-13 7-8 14-14 15-11 13-7-3-1-9 4 3-3 40-17 19-7 6-2-1 2-17 6-17 8 3 1 26-8 9-3h6l-16 5-7 3v1l11-1 22-4v2l-9 1-9 2v1h12l6-1v2l-8 1v1h10l6-1v2l-7 1v1h10l6-1v3h-7l2 2 23 3h38l25-5 4-2-10 1-12 2-11 1h-29l-7-1 34-1 21-3 19-5 21-8-3-1-28 8-23 4-14 1h-18l5-1 27-2 21-4 23-7 18-6 16-2v-1l-9-1-16 3-35 10-24 4-31 2v-2h11l23-2 23-5 24-7 18-5 12-1-3-2-5-1h-9l-23 5-32 8-17 3h-26l-14-1v-1h38v-1l-24-2-13-3-10-1-1-2-10-1v-2h-4v-3h23v2h-7v1l22 1 1 2h-5v1h28l8-1v-1h-7v-2l22-1 6-1v-1l-25-2h-4v-2l25 1h19v-1l-22-4-21-2v-1h10l22 2 13 1-3-2-15-5-8-2-1-2 16 3 16 5 11 4h6l-1 2-17 2h-3v2l-34 8v1l12-1 37-8 6-1h18l-4-3-24-9-28-9-9-2-1-2 18 3 25 7 22 8 21 11 17 12 13 11 12 11 9 8 2-1-9-9-8-7-9-9-14-11-16-11-21-11-27-10-27-8h-3v-4l16 4 28 8 24 10 18 10 16 12 10 8 15 14 10 10 2-1-33-33-18-13-23-13-26-11-27-9-2-3 27 7 25 10 20 10 16 10 12 9 10 9 22 22v-3l-16-17-33-33-17-13-17-10-23-10-20-6-24-5 16 1 15 3 20 6 19 8 16 9 16 12 13 12 10 9 17 17 7 8 9 10v-3l-10-11-7-8-12-13-18-18-8-7-12-10-15-10-21-10-24-8-24-5-16-2v-2l30 4 21 5 20 7 19 9 14 9 13 11 12 11 25 25 14 16v-3l-13-15-12-13-15-16-8-7-13-12-13-10-17-9-21-8-23-6-21-4-24-2-1-1h19l23 3 21 5 24 8 18 8 15 10 13 11 12 11 14 14 7 8 11 12 6 7v-3l-12-14-7-8-12-13-32-32-8-7-10-9-16-10-16-7-20-6-16-3-7-1-33-1v-1l12-1h15l20 2 19 4 18 6 16 8 13 9 11 9 31 29 10 10 7 8 9 10 11 14 3 2-2-5-11-13-9-11-11-12-9-10-34-34-13-10-19-10-21-7-20-4-10-1h-47v-2l14-1h32l24 3 22 6 19 8 16 10 10 9 8 7 36 36 9 11 10 12 10 13v-3l-10-14-9-11-11-13-9-11-8-8-7-8-22-22-17-13-18-11-16-7-13-4-16-3-11-1h-16v-2h24l19 3 16 5 18 8 16 9 17 13 12 11 8 7 7 8 8 8 7 8 11 13 13 17 11 15v-3l-10-15-10-13-11-14-11-13-12-14-16-16-14-11-13-9-15-8-18-7-14-4-12-2zm157 0m8 0m-359 1m352 0m8 0m-361 1v3zm354 0v2l2-1zm8 0m-367 1m368 0 1 2zm-369 1m362 0 2 4 3 2-2-4zm-358 1m366 0m-367 1m368 0m-373 1m4 0m370 0m-371 1 1 2zm372 0m-373 2m367 0m7 0m7 0m-382 1m369 0m7 0m-377 1m371 0 2 4v-3zm7 0m1 1m-380 1m-1 1m389 0m-402 1m389 0m7 0m-384 1m378 0m7 0m-386 1m380 0 1 3v-3zm7 0m7 1m-395 1m389 0m-396 1m6 0m384 0m7 0m-400 1-16 7-11 7-5 5-4 5-6 14-6 15-7 11-7 7h3l8-7 7-10 9-22 7-9 8-7 20-11 3-3v-2zm394 0m7 0m-393 1m387 0 1 3v-3zm13 0m-6 1m15 0m-14 1m15 0 2 5 7 9 9 7 29 10 6 4 7 7 8 16 2 6 1 20h1v-24l-4-14-5-10-9-10-11-7-26-9-11-6zm-412 1m391 0m7 0m-6 1 1 3v-3zm-393 1m400 0m1 1m-6 1m1 1 1 2zm6 0m-13 1 2 4v-3zm14 0m-6 1m7 0m-6 1 1 3v-3zm43 0m-36 1m40 0m-53 1 2 4v-3zm14 0m42 0m-453 1m405 0m51 0m-50 1 1 2zm6 0m47 0m-46 1m-13 1 1 3v-3zm7 0m56 0m-55 1 1 2zm6 0m51 0m-50 1m52 0m-65 1 2 4v-3zm7 0m60 0m-59 1 1 2zm6 0m54 0m21 0 2 5 5 11 3 14 1 7h1v-11l-4-15-6-10zm-74 1m55 0 2 3 2-1zm-61 1m-429 1m423 0 1 3v-3zm7 0 1 2zm6 0m11 0m-448 1 1 2zm449 0 2 6 6 8 9 8 13 8 8 6 6 11h1l-1-9-4-9-7-8-7-5-16-8-9-8zm46 0m-478 1 1 2zm415 0m64 0 6 9 5 10 4 16 1 16h1v-18l-4-17-7-12-4-4zm-485 1 1 2zm415 0 1 3v-3zm7 0 1 2zm-434 1 1 3zm17 0 1 2zm418 1m-443 1m19 0 1 2zm410 0 2 5 4 4-2-5zm8 0 1 3v-3zm7 0 1 2zm-429 1m9 0 1 2zm-25 1m8 0 1 2zm7 0 1 2zm4 0-11 24-9 10-18 11-14 10-9 10-7 14-4 14-1 13 2 11 5 12 13 19 1-2-8-14-7-14v-3l8 16 7 10 1-2-10-21-3-14v-12l3-13 6-12 11-12 15-10 11-8 10-10 6-12 3-12zm427 0m-422 1 1 2zm416 0 1 3v-3zm-441 1m4 0m11 0-12 24 1 2 6-9 6-14zm433 0m-440 1 1 3zm441 0 1 2zm-450 1m25 0 1 2zm419 0 1 2zm42 0m54 0m-536 1m447 0m37 0m53 0 2 4 10 10 7 10 7 14 1 6v17l-4 13-3 9 3-3 6-14 2-11v-11l-3-12-6-11-11-12-10-9zm-542 1 1 2zm9 0-7 16-4 8 1 2 7-11 4-11zm437 0 1 3v-3zm45 0m-487 1 1 2zm435 0 1 3v-3zm14 0m40 0m-494 1 1 2zm26 0m429 0 1 2zm41 0m-47 1 1 2zm48 0m-493 1 1 2zm438 0 1 3v-3zm14 0m42 0 5 5-2-4zm-499 1 1 2zm26 0m425 0m-447 1 1 3zm448 0 1 2zm6 0m-13 1 2 5 1-2zm-446 1 1 2zm29 0 1 3zm425 0m6 0m-456 1 1 2zm501 0m-506 1 1 2zm456 0m6 0m45 0 1 2zm-478 1 1 3zm428 0 1 2zm-453 1 1 2zm446 0 1 3v-3zm58 0m-509 1 1 2zm459 0m51 0 1 2zm-506 1 1 2zm25 0 1 2zm415 0 2 5 3 3-2-5zm9 1 1 2zm7 0m18 0m33 0 1 2zm-512 1m4 0-2 6 3-3zm25 1 1 3zm426 0 1 2zm7 0m51 0 1 2zm-514 1 1 2zm482 0m7 0m-32 1m7 0m19 0m32 0 2 12 2 20h1v-19l-4-13zm-516 1 1 2zm30 0 1 3zm436 0m19 0 6 7 12 12 5 12 2 9v16l-1 7v9h1l2-14v-19l-2-12-4-9-4-6-15-12zm8 0m-516 1m482 0m100 0m-583 1m23 0 1 2zm4 0 1 2zm9 0m440 0 1 3v-3zm8 0 1 2zm7 0m29 0m81 0 1 2zm-566 1m549 0m-562 1m4 0m27 0 1 2zm432 0m7 0m110 0 1 2zm-124 1 1 2zm27 0m80 0 1 2zm-560 1m4 0m457 0m117 0 1 2zm-579 1m4 0m443 0 2 5 3 3-2-5zm8 0 1 3v-3zm27 0 1 2zm74 0m6 0 1 2zm-563 1m4 0m25 0m3 0 1 2zm432 0m117 0 1 2zm-94 1 1 2zm71 0 1 2zm6 0 2 10v16l-4 14-16 31-4 13v21h1l2-18 5-15 16-32 3-9 1-12-3-14-2-5zm-600 1m494 0 1 2zm7 0m19 0 1 9v18l-2 12v10l2 13 5 12 3 4-2-9-2-11 1-15 1-7v-20l-3-10-3-6zm69 0m29 0 1 6 1-4zm-551 1 1 2zm435 0 1 2zm22 0 4 17 1 14-1 9v18h1l2-17 1-15v35l5 17 8 16 4 4-3-9-4-13v-47l-5-16-8-10zm71 0v21l-4 15 2-20-2-14h-1v16l-2 12-6 16-9 20-3 13v14l3 11 4 8 1-3-2-9v-14l4-16 9-19 7-14 3-10v-16l-3-11zm-531 1m431 0 1 3v-3zm-482 1-20 13-10 9-8 16-1 4v20l4 18 6 14 2 1-2-6v-2l7 12 9 10 8 10 3 6 1-3-7-12-9-12-8-14-4-11-2-10v-15l4-16 7-11 11-11 10-8 1-2zm57 0 1 3zm433 0 1 2zm120 0m-628 1m64 0m7 0 1 2zm486 0 1 2zm-558 1m495 0 2 6 3 3-1-4-3-5zm8 0 1 2zm-504 1m65 0m11 0 1 3zm435 0m116 0 1 21h1v-17zm-628 1m59 0m6 0m441 0 1 2zm-507 1m23 0m36 0m5 0-10 7-15 8-9 9-8 13-4 12-1 6v17l4 11 1-3-3-15 2-17 4-10 8-11 8-6 17-9-3-1 3-3 8-7zm10 0 1 2zm-75 1m23 0m35 0m20 0 1 4zm431 0 1 2zm-510 1m22 0-13 11-6 7-5 12-2 11v18l4 15 6 12 14 19 2 2-1-4-13-24-5-16-1-6v-18l3-12 8-14 11-12zm36 0m-59 1m57 0m455 0 1 2zm-513 1m56 0m17 0m509 0v6h1v-6zm-583 1m81 0 1 3zm434 0 1 2zm84 0v6h1v-6zm-600 1m70 0m439 0 2 6 2 1-2-6zm-441 1m5 0m444 0 1 2zm-450 1m5 0m-7 1-1 2 3-1zm6 0m10 0 1 3zm4 0 1 3zm433 0 1 2zm-448 1m434 0 1 2zm-435 1m450 0 1 2zm80 0-3 13-12 25-4 10-2 9v18l2 8h1v-22l3-13 13-30 3-11v-7zm-532 1-1 2 3-1zm17 0 1 3zm113 0m308 0 1 3v-3zm78 0 1 2zm10 0 1 2zm-513 1 1 2zm433 0 1 2zm-449 1-1 2 3-1zm19 1 1 3zm424 0 1 2zm7 0 1 2zm78 0-5 12-11 22-3 8-1 6v13l2 12 4 9 1-2-3-16 1-13 4-14 8-19 4-14zm-531 1-17 9-8 8-7 14-2 7v16h1l2-15 4-12 6-10 10-8 13-8zm447 1 1 2zm7 0 1 2zm125 0v6h1v-6zm-558 2 1 3zm427 0m7 0 1 2zm119 0 1 4zm-557 1 1 2zm432 1m7 1m-436 1 1 2zm430 0m-442 1m443 0m6 0m116 1 1 2zm7 0 1 2zm-557 1 1 3zm270 0m159 0m-451 1m5 0m-6 1m5 0m448 0m119 0m9 0 1 2zm-582 1m5 0-17 16-6 9-5 11-1 5v16h1l1-13 4-12 6-11 9-10 9-9zm18 0 1 3zm425 0 1 2zm-449 1m442 0 1 3v-3zm-444 1m452 0m7 0m127 0m-587 1m12 0m14 0 1 3zm312 0m116 0 1 2zm-455 1m12 0m330 0m106 0 1 3v-3zm141 0m4 0m-594 1m12 0m445 0m138 0m-596 1m348 0m244 0m-593 1m13-1-8 7-8 9-8 16-1 3v14h1l2-11 6-14 4-5v-3l12-13zm16 1 1 2zm322 0m94 0 2 4v-3zm8 0m7 0m134 0m-595 1m354 0m101 0 1 2zm-456 1m357 0m246 0m-604 1m18 0m13 0 1 3zm328 0m99 0m147 0m-606 1m18 0m344 0m90 0 1 3v-3zm-453 1m18 0m347 0m80 0 2 4v-3zm16 0m149 0m-611 1m18 0m15 0 1 3zm237 0m97 0m96 0m150 0m-614 1m18 0m343 0m9 0m87 0m159 0m-617 1 1 2zm18 0m5 0m349 0m87 0m118 0 1 2zm42 0m-602 1m5 0m12 0 1 3zm340 0m77 0m171 0m-683 1 1 14 3 12h1l-1-9-2-15zm60 0m17 0m5 0m354 0m68 0m9 0m8 0m116 0-3 5 1 2 3-5zm-578 1 1 2zm17 0m5 0m249 0m107 0m68 0m9 0m8 0m166 0m-613 1m5 0m14 0 1 3zm338 0m7 0m67 0 2 4v-3zm9 0 1 3v-3zm8 0m-465 1m16 0m329 0m37 0m-383 1 1 2zm16 0m24 0 1 3zm303 0m15 0-7 2v1l18 2 14 7 14 11 10 8 2-1-13-12-11-9-11-7-6-2zm26 0 2 3 2-1zm-365 1m17 0 1 2zm303 0m121 0m168 0m-629 1 1 2zm19 0m434 0m9 0m-542 1 1 4zm98 0m22 0 1 3zm310 0m39 0 6 7 10 9 9 8 2-1-9-9-16-14zm65 0m123 0 1 2zm60 0m-638 1 1 2zm18 0m19 0 1 2zm312 0m107 0m-439 1m4 0-11 11-3 5 1 3 6-9 9-8zm325 0m101 0m10 0m120 0-8 16-3 9-1 7v10l4 18 3 7 1-3-4-12-1-5v-18l3-12 7-15zm66 0m-603 1 1 2zm304 0m104 0m-449 1 1 2zm37 0 1 2zm306 0m11 0v1l16 3 12 6 18 13 7 5 2-1-14-12-15-11-11-4zm96 0m-110 1m12 0m297 0m-728 1v26l3 28-1 13-4 12-7 11-7 5-8 1v1h10l6-3 6-5 6-10 4-14v-14l-5-28-2-23zm78 0 1 3zm41 0 1 2zm298 0m113 0m-415 1 1 2zm142 0m274 0m-260 1m140 0m121 0m-455 1 1 3zm41 0 1 2zm415 0m-419 1m292 0m311 0m-695 1 1 4zm104 0 1 3zm277 0m316 0m-643 1v5h1v-5zm41 0 1 2zm4 0 1 3zm278 0m127 0m195 0m-298-4-11 4-22 11-3 1v2l-9 3-11 4-14 2-14-1-11-3-33-1-31 1v-2l51-1-4-2-3-1h-29l-21 1-8 1v-2l46-3-4-2h-29l-17 2h-5l17-3 19-2-3-2h-12l-20 3v-2l14-2v-1h-13l-17 4-16 7-11 7-12 11-14 14-9 11-7 9 1 2 14-15 11-10 16-12 16-9 12-4 5-1h15l2 3 8 1v3h8v3l23 1 11 2 12 6 10 8 9 11 8 16 2 8v15l24-4v-1h-12l-10 2v-2l11-2 12-1-4-1v-2l-13 1-4 1 3-2 14-3v-2h-11l-8 2v-3l12-1 10-2 1-3-25 2v-2l14-1 28-5h4l-9 3v1h8l-4 2-8 2 1 2 12-2-4 2-1 3-5 2 4 1 8-2-1 2-11 3v1h7l17-5 16-6-3-1-18 5 2-2 23-8-4-1-18 5v-2l11-3 16-5v-1l-9 1-16 4 1-2 28-7 5-1v-1l-12 1-9 2v-2l19-4 12-1v-1h-14l-20 4v-2l17-4 22-1v-1l-8-1h-11l-16 3-7 2v-2l11-3 9-2h25l-4-2-6-1h-19l-17 4-23 6-16 2h-15l-20-4v-1l11 2 19 1 22-2 23-6 15-4h23l12 3 4-1-16-5-6-1h-17l-50 10-8 1h-22l-18-3v-2l9 2 6 1h24l21-3 36-8h21l16 4 6 1-4-3-14-5-9-2h-20l-18 3-29 7-8 1h-29l-12-2 1-1 19 2 20-1 19-3 29-7 8-1h21l16 4 13 5 2-1-17-9-14-4h-22l-16 4 2-2 14-4h23l12 3 18 8 2-1-11-7-13-6-7-2h-17v-2h17l13 4 16 8 5 3 2-1-15-11-16-8-5-1h-8l-12 3-17 9-21 9-19 5-8 1h-23l-17-2v-1l13 1h29l20-4 16-6 27-14 12-3h8l13 4 14 8 15 10 4 1-5-5-12-9-14-9-10-4h-17l-2 1v-2zm-28 5m132 0m196 0m-598 1 1 2zm393 0m10 0m196 0m-608 1 1 2zm4 0 1 2zm399 0m10 0 1 3v-3zm197 0m-703 1 1 3zm101 0 1 3zm94 0m302 0m207 0m-657 1v5h1v-5zm34 0m417 0m65 0m142 0m-609 1 1 2zm412 0m198 0m-699 1 1 4zm93 0 1 2zm5 0-1 5 2-2zm404 0m55 0m143 0m-706 1 1 3zm490 0m217 0m-645 1-2 8v7l3 11 6 11 8 13 4 13 1 7v12l-4 13-6 11-9 10-22 14-7 6-5 10-1 4v9l4 11 4 4-4-12v-15l5-10 9-8 4-2-5 5-7 6-4 7-1 4v12h1l2-11 5-9 7-7 12-9 12-12 7-11 5-12 1-4v-20l-4-14-6-12-7-10-5-12v-18zm32 0 1 2zm195 0m202 0m9 0m64 0m144 0 1 2zm-735 1v9h1v-9zm97 0m28 0 1 2zm195 0v1h5v-1zm62 0m137 0m-491 1 1 2zm6 0 1 3zm40 0 1 2zm252 0v1l5 1h14v-1zm51 0m143 0m72 0m144 0m-616 1 1 2zm4 0 1 2zm5 0 1 2zm239 0v1h5v-1zm132 0m21 0m216 0m-641 1v10l4 12 9 12 7 10 3 3-3-9-13-18-5-12-1-8zm249 0m156 0m11 0m10 0m210 0m-724 1v5h1v-5zm21 0 1 2zm6 0 1 2zm467 0m11 0m10 0m215 0m-619 1 1 2zm4 0 1 2zm5 0 1 2zm375 0m11 0m225 0m-709 1 1 2zm464 0m11 0m197 0m-666 1m205-1-16 3-17 8-12 9-11 9-10 9-7 7-5 6 1 2 8-8 13-10 21-14 14-8 14-5 21-3v-1h-14l-15 3-3 1v-2l22-4 1-2zm110 1v1h7v-1zm144 0m11 0m11 0m190 0m28 0m5 0m-709 1 2 5 1-2zm42 0 1 2zm49 0 1 2zm5 0m5 0 1 2zm364 0m11 0m11 0m192 0m31 0m-732 1 1 10 4 18 1 8v11l-3 13-5 9 1 2 6-7 4-9 1-4v-21l-8-27zm489 0m214 0m-612 1 1 2zm26 0 1 2zm5 0 1 2zm360 0m8 0m11 0m204 0m23 0m5 0m-668 1m47 0 1 2zm372 0m8 0m169 0m46 0 1 2 2-1zm-634 1 1 2zm412 0m8 0m11 0m80 0-1 2v28l4 16 7 16 2 1-2-6-6-16-3-13v-28zm150 0m-742 1v9h1v-9zm33 0 2 5 1-2zm41 0m26 0 1 2zm24 0 1 2zm5 0 1 2zm366 0m8 0m167 0m48 0m20 0m5 0m-722 1m221 0-13 3 4 1 32-3v-1zm235 0 1 2 2-1zm10 0m232 0m20 0m-694 1 1 3v-3zm56 0 1 2zm18 0 1 2zm9 0 1 2zm361 0m107 0-1 8v12l3 15 5 13 6 10 9 10 14 9 8 3 4-1-16-8-12-11-8-13-4-11-2-16v-16l-5-4zm124 0m24 0m-611 1 1 2zm347 0m11 0m17 0m100 0m64 0m49 0m-698 1m79 0 1 2zm36 0 1 2zm334 0m10 0m29 0m98 0m113 0m19 0m4 0m-709 1 2 5 9 15 4 11 3 18h1v-10l-2-12-8-16-8-11zm11 0 1 2zm85 0 1 3zm94 0-16 8-14 9-14 10-11 9-4 5 4-2 14-10 20-12 17-9 12-4 8-1v2l-9 1-14 5-19 11-22 14-10 8-12 12 1 2 8-8 13-9 22-12 19-9 18-4h17l7 2 1 2 10 3 1 3 5 3h2v4l5 3 1 2-2 1 3 2v3l5 2v2l-19-6-9-2h-5v-3l11 2h5l-3-2-19-3-1-2 21 2-3-2-13-2h-14v-2l15-1v-1h-17l-8 1v-2l11-1v-1h-12l-3 1v-3l14-1 9-1v-1h-13l-16 3-13 5-20 10-19 12-12 11-2 4 4-1 5-2 2-3 2-2 2 1 4-4 2 1 4-4 2 2 2-2 4-2 3-1 1 2 1-4 7 1v-2h3l2 2 1-3 1 2h2l1 2 1-4 2 2v-3h2l1 2v-2l3 1 6-1-4-1v-3l13 5 25 13 21 9 2-1-1-1 5 1 9 3 3-1-16-7h-2v-2l21 8 3-1-6-2v-3l7 3 3-1-12-6h-2l1-2 14 6 3-1-19-8h-2v-2l18 6 9 4 3-1-17-8-8-3 1-1 17 6 5 1-4-3-17-7h-2v-2l15 5 5 1-4-3-11-5h-2v-2l11 3-1-4-7-2h-6v-3l9 2 4-1-16-4 9-1v-1l-10-2h-7v-3l13 2h6l-4-2-17-3 1-1h13v-1l-15-2h-10v-2h20v-1l-7-1-17-1v-1l18-1v-1l-27-1v-1l30-1v-1h-46l-16 2v-2zm248 0m10 0m189 0m50 0m19 0m-639 1 2 5 4 4-2-5zm24 0m10 0-1 5 2-2zm155 0v1h5v-1zm183 0m150 0 1 3zm49 0m-626 1m249 0m180 0m-428 1 1 2zm82 0 1 2zm171 0m177 0m159 0 1 4zm37 0m50 0m19 0m-274 1m11 0m142 0 1 2zm53 0m69 0m-744 1-1 18-2 10-5 12-4 5-4 2h-7l-1-7-2 2v8l4 3 6-1 8-6 6-10 3-8 1-13-1-15zm49 0m25 0m215 0 4 1zm182 0m49 0m105 0-1 4 3 2-1-6zm51 0 2 4 4 5 10 7 4 2 3-1-12-7-10-10zm49 0m-705 1m30 0 1 3v-3zm79 0 1 2zm5 0 1 2zm161 0m178 0m42 0-17 8-7 4-10 3-7 2-12 1 2 1v2l3 1v1l14-1 8-1-5 2 4 1 11-4 22-12-2-1-13 7 4-4 14-7-3-1-3 1 1-3zm108 0m-548 1m225 0m164 0m141 0v11l2 12 5 13 8 11 8 8 12 7 10 2-4-3-10-6-9-9-6-10-4-12-3-19-7-5zm-472 1 1 2zm171 0m162 0m-445 1m31 0m76 0m341 0m194 0m81 0m-691 1 2 4v-3zm55 0 1 3v-3zm186 0 4 1zm16 0m-288 1m51 0 1 2zm59 0 1 2zm5 0 1 2zm163 0m13 0m149 0m63 0m102 0m-323 1m161 0m57 0m114 0 1 2zm29 0m-642 1 1 2zm51 0 1 2zm36 0m26 0 1 2zm317 0m15 0m-412 1 2 4 8 12 1-2-7-11zm55 0 1 2zm20 0m180 0m146 0m180 0m15 0 1 3zm-517 1 1 2zm164 0m162 0m206 0m-643 1 1 2zm45 0 1 2zm6 0m37 0m28 0 1 2zm164 0m334 0m-330 1m11 0m131 0 4 1zm173 0v7l4 13 6 11 4 3-2-4-5-11-4-17zm104 0m-657 1 1 2zm43 0m21 0 1 2zm5 0 1 2zm172 0m10 0m135 0m197 0 1 3zm-628 1 1 3zm31 0m58 0m30 0 1 2zm170 0m326 0m30 0m60 0m-691 1 1 2zm32 0 1 2zm62 0 1 2zm5 0 1 2zm178 0m199 0m156 0m57 0v3l2-1zm3 0m-709 1 1 2zm93 0m28 0 1 2zm162 0m14 0m194 0m159 0m-646 1v22l-3 10-5 9 1 2 6-9 3-8 1-6v-10l-2-10zm32 0m79 0 1 2zm106 0v1h12v-1zm66 0m12 0m308 0 1 9 5 12 7 9 7 6 5 2-12-14-5-10-4-11zm25 0 1 2zm19 0m-633 1m32 0 1 2zm44 0m3 0m23 0 1 2zm119 0 4 1zm51 0m12 0m343 0m7 0m25 0m31 0m-626 1m164 0m47 0m11 0m111 0v1h6v-1zm71 0m167 0m26 0m-660 1 1 2zm19 0m57 0m19 0m5 0 1 2zm162 0 4 1zm15 0m141 0m47 0m149 0 1 2zm21 0m29 0m-682 1v15h1v-15zm82 0m203 0m13 0m135 0-2 1 1 2 3-3zm48 0m173 0m31 0m-647 1m9 0 1 2zm3 0m33 0 1 2zm12 0m22 0 1 2zm118 0v1h7v-1zm54 0m11 0m139 0m40 0m154 0v2h-2l2 6 8 10 11 11 2-1-11-11-6-10-3-7zm14 0m8 0m-636 1 1 2zm20 0 1 2zm59 0m14 0m131 0 4 1zm49 0m11 0m110 0m24 0m40 0m171 0m8 0 1 2 2-1zm-690 1m118 0 1 5 3 11 1 7v9l-3 14-8 16-8 10-9 9-8 7-6 7 1 2 7-7 11-9 12-12 7-11 5-13 2-15-2-17-4-11zm32 0 1 2zm132 0m47 0m10 0m103 0m22 0m5 0m7 0m33 0m174 0m-609 1 1 2zm4 0 1 3zm207 0m46 0m10 0m96 0 4 1zm25 0m5 0m6 0m17 0v1h5v-1zm16 0m173 0m5 0m9 0m-611 1m20 0 1 3zm31 0m155 0m33 0m13 0m9 0m113 0m5 0m5 0m18 0v1h5v-1zm20 0m176 0m5 0m9 0m-640 1 1 3zm21 0 1 2zm53 0 1 2zm21 0m176 0m11 0m118 0m5 0m6 0m12 0v1h5v-1zm25 0m179 0m5 0m10 0 3 3 5 1-4-3zm57 0m-674 1 1 3zm249 0m114 0m9 0-12 8v3l-5 2-4 4 6-2-4 4-14 8-15 6-3 2 8-1 16-7 18-12 10-8 6-5h-3l-5 3 4-5zm7 0m5 0m11 0m24 0m184 0 2 4 9 8 10 6 20 8 3-1-24-11-11-7-8-7zm5 0m-645 1-1 13-4 12-6 9-8 8-14 10-11 11-7 11-5 11-1 3v14h1l2-15 7-16 8-10 12-10 11-8 9-9 7-14 1-6v-14zm61 0v16l-3 12-6 11-8 9-14 11-7 7 1 2 8-8 12-9 8-7 8-12 4-12v-13l-2-7zm31 0m14 0m136 0m47 0m107 0m24 0m31 0m195 0m-612 1m53 0m158 0m36 0m11 0m101 0m26 0m25 0 4 1zm177 0m26 0m-634 1v17h1v-17zm44 0-1 15-5 14-7 10-2 1-1-2-7 7-11 9-7 7-6 13-1 5v16h1l1-14 5-12 6-7v-2l4-2 12-10 8-7 7-8 5-12 1-5v-10l-1-6zm53 0 1 2zm138 0m35 0m12 0m95 0m27 0-1 2 3-1zm17 0-4 2 12-1v-1zm214 0m14 0m-412 1m36 0m11 0m124 0m201 0m27 0m16 0m-630 1m31 0 1 2zm27 0m33 0v3zm154 0m9 0m10 0m116 0m5 0m203 0m45 0m-559 1m5 0 1 2zm129 0m39 0m9 0m52 0 4 1zm71 0m210 0 1 2zm28 0m20 0m-425 1m37 0m10 0m43 0 4 1zm54 0m22 0m25 0m215 0m24 0m-564 1m11 0m5 0m5 0m61 0m55 0m37 0m9 0m93 0m22 0-4 5 4-2 2-3zm18 0 4 1zm196 0m30 0m-543 1 1 2zm11 0v3zm5 0v3zm5 0m65 0m54 0m37 0m9 0m88 0m39 0m201 0 2 4 2 1-2-4zm30 0m-711 1m122 0-2 17 2-3 1-5v-9zm65 0m68 0m91 0m10 0m357 0m-667 1 1 2zm120 0 1 2zm20 0m40 0 1 4zm31 0m92 0m9 0m132 0m224 0m-538 1v3zm5 0m4 0m37 0m9 0 1 2zm28 0m82 0m10 0m116 0m13 0v1h5v-1zm236 0m-551 1m15 0 1 2zm4 0m35 0 1 2zm42 0m82 0m10 0m50 0m39 0m18 0-13 10-13 8-8 4 3 1 17-9 14-11 2-3zm6 0m10 0m242 0m-578 1 1 2zm88 0 1 2zm12 0-2 2 4 2v-4zm3 0m102 0m10 0m44 0m41 0m25 0m220 0 2 4 10 9 5 2-5-5-11-10zm35 0m-556 1m10 0 1 2zm5 0m85 0m83 0m90 0m27 0m259 0m-647 1v6h1v-6zm102 0 1 2zm35 0m5 0 1 2zm48 0m84 0m84 0-22 7-13 3v1h8l16-4 14-6zm29 0m15 0v1h5v-1zm247 0m-618 1 1 4zm56 0m10 0m42 0m20 0m33 0m84 0m89 0-1 2 3-1zm21 0m265 0m-555 1 1 2zm5 0m28 0 1 3zm3 0m24 0m112 0m11 0m42 0m64 0m200 0m69 0m-568 1m14 0 1 2zm95 0m75 0m12 0m80 0m22 0m202 0m70 0m-665 1 1 4zm104 0 1 2zm31 0 1 2zm27 0m44 0m76 0m87 0m23 0m204 0m72 0m-560 1m24 0 1 2zm27 0m5 0m44 0m76 0m82 0-19 7-8 2v1l10-1 16-6 4-3zm25 0m206 0m73 0m-680 1 1 2zm45 0 1 2zm4 0 1 3zm59 0 1 2zm5 0-2 5 3-3zm52 0m55 0m77 0m102 0-2 3 4-2zm209 0m-590 1 1 3zm66 0v9h1v-9zm33 0m22 0m20 0m7 0m56 0m77 0m310 0m35 0m41 0m-578 1 1 2zm9 0 1 2zm20 0m18 0m7 0m63 0m65 0m281 0 2 5 3 2-2-4zm40 0m35 0 1 2 2-1zm42 0m-688 1 1 2zm10 0 1 2zm4 0 1 2zm31 0 1 2zm4 0 1 3zm73 0m35 0m71 0m53 0m12 0m103 0-11 8-7 4 3 1 11-7 6-5zm-289 1 1 2zm9 0 1 2zm5 0m31 0m78 0m53 0m13 0m353 0m34 0m-741 1m57 0 1 2zm41 0m23 0 1 3zm48 0 1 2zm9 0m28 0m6 0m78 0m54 0m12 0m324 0m28 0m35 0m-742 1m66 0 1 2zm35 0 1 2zm4 0 1 2zm58 0 1 2zm9 0m25 0m95 0m42 0m12 0m335 0m28 0m35 0m-715 1m26 0 1 2zm112 0 1 2zm9 0m23 0m95 0m42 0m367 0m7 0m36 0m-681 1m30 0m5 0v3zm4 0 1 2zm15 0 1 2zm43 0 1 2zm9 0m9 0m14-1-2 2 5 1zm103 1m42 0m345 0m21 0m7 0m36 0m-694 1-8 10-11 10-10 8-8 7-8 11-4 8-2 8v10l2 7h1l2-16 5-13 8-12 11-12 14-12 8-10 1-4zm40 0m72 0 1 2zm9 0m4 0m120 0m10 0m21 0m11 0m36 0-10 3 4 1 9-2 12-1v-1zm256 0 2 4 7 7 12 7 2-1-14-9-8-8zm53 0v2l5 1-4-3zm20 0m8 0m36 0m-708 1m47 0m14 0 1 2zm15 0 1 2zm43 0 1 2zm9 0m4 0m127 0m10 0m22 0m375 0m8 0m36 0m-711 1m47 0m5 0m5 0-7 8-6 4-14 11-7 9-4 9-1 5v15l2 4 1-16 3-10 6-9 6-7 11-9 10-10 1-4zm67 0 1 2zm24 0m114 0m11 0m10 0m11 0m375 0m8 0m61 0m-692 1m5 0m10 0 1 2zm15 0 1 2zm24 0-4 15-7 14-12 14-5 6 4-2 10-9 7-8 6-12 2-9v-9zm19 0 1 2zm9 0m4 0m143 0m12 0m363 0m21 0m43 0m-669 1m5 0m73 0 1 2zm18 0m137 0m46 0m44 0 4 1zm286 0m19 0m42 0m24 0 1 2zm-695 1m5 0m11 0m15 0 1 2zm43 0 1 2zm9 0m195 0m12 0-12 4 3 1 16-4v-1zm49 0m292 0m-638 1m11 0m11 0v3zm63 0-1 5 2-2zm15 0m243 0m297 0m-641 1m6 0m5 0m27 0 1 2zm43 0 1 2zm9 0 1 2zm252 0m14 0m244 0m-647 1m46 0m6 0m5 0m88 0m240 0m15 0-2 2 5-1zm-355 1m6 0m4 0-2 3 4-2zm13 0m16 0m52 0 1 2zm215 0v1h9v-1zm-308 1-13 11-6 9-4 10v20l2 4v-22l4-11 7-9 12-12zm7 0m77 0 1 2zm204 0m12 0-8 3 3 1 12-3v-1zm53 0m336 0m-683 1m34 0m48 0 1 2zm4 0 1 2zm93 0m165 0m340 0m-685 1-14 12-6 8-4 10v16l2 8 1-4v-13l4-12 6-10 7-7 8-6zm4 0m30 0m11 0m33 0 1 2zm88-1-10 1v2h-6v2h-6v2l-7 1v2h-15v1l13 1v2h-5v2l-4 2-4 3 14 1h11v-1l-9-2 7-1-1-3 9 1-4-1v-3l3 1h7l-4-3h7l-3-2h-2v-2l9 1-3-1 1-2h6l-2-1v-2l8 1-1-2zm520 1m-653 1m49 0 1 2zm4 0 1 2zm91 0m413 0m-546 1m241 0m13 0-7 2 4 1 10-2v-1zm115 0-4 2 18-1v-1zm20 0v1h7v-1zm162 0m92 0m-610 1m4 0 1 3zm4 0 1 2zm85 0m113 0m158 0m3 0m-401 1m48 0m314 0 4 1zm40 0m243 0m11 0 1 3zm-719 1m62 0 1 2zm247 0m113 0m46 0m2 0m100 0m139 0 1 2zm-609 1 1 2zm4 0 1 2zm84 0m118 0m115 0m51 0m126 0 4 3 6 2h5l-4-2-8-3zm-599 1m62 0m257 0 4 1zm156 0m236 0 1 2zm-712 1m62 0v3zm24 0 1 2zm19 0 1 3zm211 0 4 1zm100 0m158 0m-575 1m102 0 1 2zm212 0m-315 1 1 2zm313 0m264 0m138 0m-653 1m25 0 1 2zm19 0 1 3zm106 0 3 3-1-3zm5 0m7 0m354 0m39 0 4 1zm-618 1m62 0-10 9-9 6 2 1 13-9 5-5zm41 0 1 2zm38 0m66 0 2 2v-2zm4 0m11 0m102 0 4 1zm301 0v1h7v-1zm95 0 1 2zm-517 1v2l2-1zm9 0m7 0m4 0m97 0m260 0m137 0m-718 1m88 0m19 0 1 2zm103 0m108 0m264 0m-382 1 1 2h2v-2zm6 0m5 0m104 0m-316 1m88 0 1 2zm120 0m106 0m270 0m-387 1m7 0m108 0m273 0m135 0 1 2zm3 0v5h1v-5zm-724 1 1 2zm88 0m52 0v1h5v-1zm60 0m7 0m119 0m261 0m99 0m-492 1m128 0m294 0m71 0m-600 1m109 0m123 0m269 0m29 0m-618 1m87 0 1 2zm104 0m127 0m272 0m29 0 3 5 7 12 2 5 1-4-7-14-4-4zm70 0m-547 1v1l22 2 4-2-4-1zm51 0m398 0m34 0m-539 1m102 0m139 0v1h5v-1zm265 0m34 0m8 0m56 0m-691 1 1 2zm86 0v3zm49 0m189 0 4 1zm270 0m34 0m8 0m56 0 1 2zm-554 1m49 0v2l3-1zm135 0m273 0m8 0m26 0 2 6 4 10 2 16h1v-12l-4-14-4-6zm-599 1m111 0 3 2 5 1h18l-3-2zm178 0m16 0-11 3-6 3 3 1 3-1-3 3-6 5 2 1 2-1-3 5-4 5 5-2 3-2-7 9-1 2 8-4-6 8-2 3 4-2 4-3-2 4-8 8 1 2 10-9-2 4-8 8 1 2 8-7h2l-9 9 1 2 8-6v2l-6 5-4 5 1 2 8-7 4-2-13 13 1 2 10-8h2l-13 12 1 2 6-5 5-3 1 1-8 6-1 2 6-2 4-2-3 3-8 7-3 3 1 2 7-6 6-3-5 5-8 7-2 4 11-7 3-1-12 11-2 4 8-6 7-4-5 5-5 4-3 5 4-2 9-6 2-1v2l-5 2-9 8-3 4 1 2 7-7 5-3-7 8-2 4 7-6 4-2-2 4h2l1 3v3l-1 4 5-5 2-3-2 5v3h2l6-11-3-1 1-2 6 4v-3l-3-3 9 4 1-2-12-6-1-2 18 8-1-3-14-7h-2v-2l18 8 3-1-19-10-5-2 6 1 17 7 2-1-10-6-11-5 6 1 14 6 2-1-10-6-14-6-1-2 20 8 6 2-4-4-14-7-7-2v-2l19 7 2-1-16-8-3-2 11 3 10 5 2-1-13-8-11-5-1-2 20 9 4 1-5-5-16-8 1-1 16 7 4 1-4-4-20-11 9 3 14 7 2-1-10-7-12-6h-2l1-2 18 8 4 1-5-5-19-10 5 1 13 6 6 2-5-5-15-8-1-2 17 7 5 2-5-5-15-8h-3v-3l17 7 5 3 2-1-10-7-11-5-5-1v-2l18 6 5 3 2-1-8-6-12-5-5-1-1-2 15 4 10 5 2-1-9-6-10-4-4-1h-8v-3l16 3 10 4 2-1-8-5-11-3h-2v-2h7v-1h-9v-3h8v-1zm261 0 2 4 12 12 2-1-15-15zm8 0m33 0m66 0m-713 1m39 0v3zm55 0m233 0m28 0v1h5v-1zm260 0m6 0m27 0 1 2zm55 0 1 2zm-704 1m57 0-1 2 3-1zm37 0m101 0m131 0m35 0m124 0 1 2zm132 0m6 0m-638 1m14 0m11 0m83 0m103 0m169 0m253 0m6 0m26 0 1 3zm55 0 1 3zm10 0m-717 1-6 5-6 12-1 4v18l4 10 10 11 12 7 2-1-10-9-7-10-4-10-1-5v-12l4-12 4-6zm8 0m32 0 1 2zm17 0m37 0m275 0m252 0m6 0 2 4v-3zm87 0m-710 1m3 0 1 2zm48 0m38 0m66 0m35 0m165 0m263 0m113 0m-750 1m18 0 1 2zm36 0 1 2zm15 0m309 0m260 0m30 0 1 2zm-669 1m22 0-5 8 1-6-3 3-4 8-1 5v10l3 10 7 12 8 8 8 5 5 1-5-5-8-9-5-11-3-10v-17l3-9zm47 0m38 0m194 0m44 0m37 0m258 0m84 0v11h1v-11zm7 0v12h1v-12zm3 0v6h1v-6zm-735 1 1 2zm19 0m36 0 1 2zm52 0m238 0m40 0m257 0 1 3v-3zm5 0m106 0 1 2zm-647 1m281 0m261 0m42 0-2 12-6 12-6 7v2h2l8-11 4-9 1-4v-9zm-691 1-6 10-2 7v11h1l1-10 1 8h1l2-16 3-10zm106 0m101 0m136 0m307 0 1 2zm22 0 1 2zm-617 1m590 0m-411 1-3 5v2h-2l-2-2v5l-3-3v2l-2 1 9 4 12 3h12l12-2v-3h2l-1-2-8 4h-11l-7-3-5-6-2-5zm220 0m192 0m5 0m-331 1m183 0m144 0m5 0m103 0v8h1v-8zm-660 1m553 0 1 2zm-555 1-2 3 4-2zm252 0m308 0m83 0v6h1v-6zm-598 1m205 0m48 0m252 0 1 3v-3zm6 0m5 0 1 2zm-534 1 1 4zm16 0m206 0m51 0m257 0 1 2zm14 0v5h1v-5zm-574 1m182 0m55 0m14 0m53 0m65 0m196 0 1 2zm70 0 1 3zm-664 1m28 0m44 0m138 0m69 0m123 0m45 0 2 2 2-2zm117 0m20 0m6 0m81 0 1 4zm-705 1-1 3v9l2 10 5 12 8 9 2-1-8-10-5-13-2-15zm61 0m235 0m3 0m13 0m167-1-6 1-8 1h-11l-15-1v1l16 3h12l12-2zm121 1m19 0m6 0 1 2zm4 0 1 2zm-596 1m27 0m30 0v16h1v-16zm156 0m355 0m19 0m50 0 1 3zm-576 1-1 14-4 12-9 15-5 14-1 8 2-2 11-23 7-15 1-4v-19zm15 0m186 0m3 0 1 2zm125 0m179 0m19 0m5 0 1 2zm4 0 1 2zm27 0m40 0 1 2zm11 0 1 2zm16 0 1 3zm-666 1m50 0m82 0m111 0m3 0m299 0m19 0m82 0 1 3zm-672 1 1 2zm18 0 1 2zm57 0m84 0 1 2 2-1zm71 0m35 0 1 2zm18 0m52 0m237 0m14 0m9 0 1 2zm11 0v5h1v-5zm18 0m40 0 1 2zm-667 1m77 0m6 0m188 0m3 0 1 2zm11 0m54 0m71 0m166 0 4 5 2-1-4-4zm14 0m4 0m46 0 1 2zm38 0 1 2zm-699 1 1 2zm41 0m62 0m7 0m76 0 2 1 1 2h3l-3-3zm59 0m60 0m307 0m4 0m4 0 1 2zm3 0m72 0 1 2zm-675 1 1 4zm3 0v15h1v-15zm17 0 1 2zm62 0m6 0m57 0-7 3 3 1 7-3zm77 0m41 0 2 2 1-2zm8 0 1 2zm13 0m383 0m28 0 1 2zm-614 1m6 0m9 0m77 0 1 3 2 1 2-1 1 2 2-3zm46 0m55 0m9 0m310 0m4 0m29 0m14 0 1 2zm34 0 1 2zm4 0m-697 1m4 0 1 2zm101 0m8 0m56 0m66 0v2l3-1zm44 0m10 0 1 2zm12 0m312 0 1 2zm7 0m65 0m-677 1 1 2zm30 0 1 2zm61 0m13 0m11 0m44 0m13 0m51 0 2 3 1-3zm61 0 1 2zm65 0m245 0m15 0m27 0m14 0 1 2zm34 0 1 2zm4 0m17 0 1 2zm6 0m-701 1v14h1v-14zm80 0m6 0m7 0m9 0m35 0m10 0m17 0m3 0m6 0m9 0 1 3 2-1 1 2v-2h2l1 3 4-3 1 2 2-1 1 3 3-3 2 2 3-4zm25 0v3l5-2v-1zm81 0m52 0m245 0m11 0m-577 1 1 3zm66 0m7 0m8 0-8 7-1 4 5-5 6-5zm35 0m9 0m25 0m3 0m49 0 1 2zm49 0m3 0 1 2zm4 0m4 0m6 0m299 0m53 0 1 2zm26 0m8 0m4 0m23 0 1 2zm-609 1m19 0m22 0m9 0m22 0m3 0m12 0m102 0m6 0m291 0m10 0m10 0m27 0m70 0m-616 1m12 0v3zm18 0m11 0m11 0m9 0m130-8-2 4-4 4v3l-4-2-2 5-2-1v4h-2l-2 3-1 3-4-2 1 5-4-2v4h-2v2l-3-1-2 2-2 1v3l-3-1v3h-3v3h-3v2h-3l-4 5-3 2v2h-3v2l-3 1v2h-4l-2 4h-3l-4 3-1-2-8 7v-3l-5 1-3 2-1-2 4-2 8-7 8-8 9-12-1 6 5-5 1-3-3-1 13-5 7-4-2-1-11 5-12 3v-3l9-1 3-2-18 2-5 1v-2l10-1v-1l-23-2-4 3v-3l-4 1v-3l-4-1-2-1-2 1v-3l-4 1v-3h-4v-2l2-1-3-1v-2h-2v-2l-8 2-19 9 4-5-6 2-4 2 5-6-6 2-11 8-3 4 5-2 8-4-5 5-10 9 1 2 8-6 5-3 1 1-13 12 1 2 10-8 4-2-7 8-9 10-2 5 5-5 12-10 1 1-12 13-6 9 1 2 11-12 10-9 2-1-9 11-12 16 1 2 11-12 9-7-9 11v4l8-6 2-2-2 4-8 11 2 2 10-11 3-1-7 9 1 2 4-2 7-7-2 4-5 9 4-1 10-11-7 12-2 4h4l9-12-2 5-5 9 1 4 5-4 10-14-5 10-6 10v2l5-1 12-19-11 22v2l5-1 12-21-9 20-2 6 4 1 13-26-3 9-11 25-3 9h4l1-3-1-2 4-4 10-23 5-12-5 15-9 24v3l3-1 4-10 2 1 5-19 3-7-6 21-4 28v3l3-1 2-8 3-23 4-16 3-7v-3h2l-5 13-4 18-2 27-1 3h3l3-7v-26l1 17 2 12h3l-2-17v-16l4-20 1-1-3 14-1 8v10l2 14 3 8h2l-2-12v-27l3-16 2-6-2 10-2 11v24l4 11 1 2 3-1-4-11-1-6v-18l2-14-1 23 2 13 4 9 2-2-3-10-1-9v-10l3-22 1-6-2 17v25l2 4 1-2 2 2-1-12v-18l1-14h2l-1 2-1 13v12l3 16 3 5 2 1-3-9-2-10v-15l2 15 2 7 3-1-3-14-1-11v-16l2 24 4 13 4 6 1-2-4-9-2-9v-12l1 9 2-2 2 3-1-9v-13l2 15 4 11 1-4-3-17v-9l3 18 2 7h1v-6l-1-2h2l1 5 1-4-4-21 6 20 1-3 2-1-4-15v-4l5 15 2 2-3-21 5 18 3-1-3-16-2-5h2l5 20 2-4-2-12-2-8 6 17 2 4-1-12-1-7 3 10h1l-1-11v-2l2 3-1-10 4 15 1 6h1v-9l-1-7-2-7-2-6h2l1 3 3-6-1-3v-2l-1-3h-1l4-9zm-111 8m13 0m3 0m3 0 1 2zm4 0m28 0m4 0m45 0m11 0 1 2zm7 0m9 0m293 0m10 0m50 0 1 2zm34 0m27 0 1 2zm-616 1m23 0m11 0m11 0m9 0m43 0 1 2zm4 0m8 0m13 0m3 0 1 2zm8 0m56 0 1 2zm7 0m5 0m305 0 1 3v-3zm9 0m15 0m58 0m22 0m-648 1 1 3zm59 0-1 2 3-1zm11 0m10 0m9 0m25 0 1 2zm28 0 1 2zm13 0m4 0m8 0m56 0 1 2zm7 0m8 0 1 2zm339 0m15 0 1 2zm-659 1m84 0 1 4zm20 0m6 0m25 0-10 7-4 4 1 2 9-8 6-4zm19 0m51 0m8 0m4 0m12 0m64 0 1 2zm7 0 1 2zm62 0m242 0m17 0 1 2zm99 0m-759 1 1 3zm148 0 1 2zm14 0-5 5 1 2 6-7zm29 0m73 0m71 0 1 2zm8 0m6 0m53 0m242 0m8 0m45 0m61 0 1 2zm-718 1 1 2zm211 0m80 0 1 2zm7 0 1 2zm4 0m6 0m297 0m8 0m43 0 1 2zm-589 1 1 3zm40 0m187 0 1 2zm13 0m102 0m21 0m5 0m153 0m18 0m111 0m-761 1 1 2zm45 0 1 2zm81 0 1 3zm191 0m17 0 1 2zm7 0 1 2zm4 0m5 0v3zm301 0m7 0m41 0m61 0m4 0m-694 1 1 3zm8 0 1 2zm30 0 1 4zm42 0m187 0 1 2zm7 0 1 2zm116 0m34 0m139 0m54 0m11 0m65 0m-614 1m6 0 1 2zm81 0m61 0m43 0 1 2zm64 0m47 0m14 0m6 0m14 0m3 0m197 0-4 5 4-2 2-3zm12 0-2 4 3-2zm65 0m-716 1m66 0 1 2zm13 0 1 2zm114 0m75 0 1 2zm22 0-5 8 1 7 2 3 2-5-1-3v-3l2-4zm7 0 1 2zm5 0m57 0m71 0m27 0m131 0m127 0m-695 1 1 3zm5 0 1 3zm77 0m6 0m6 0m134 0m6 0m47 0v3zm109 0m43 0m56 0m80 0 1 2zm19 0m113 0m-720 1m56 0 1 2zm6 0 1 2zm15 0 1 2zm23 0m6 0 1 2zm6 0 1 2zm126 0m7 0m7 0m40 0m3 0 1 2zm119 0 4 1zm32 0m162 0m-607 1 1 2zm242 0m7 0m54 0m116 0 4 1zm6 0v2l3-1zm12 0-1 2 5-1zm5 0m70 0m76 0 1 2zm58 0m-622 1 1 2zm51 0m23 0m6 0m6 0m84 0m37 0m9 0m8 0m42 0 1 2zm3 0 1 2zm4 0v3zm5 0m128 0v1h5v-1zm89 0m113 0m13 0m70 0m-714 1m18 0 1 2zm90 0m119 0m10 0m8 0m55 0m54 0m96 0m138 0 1 2zm42 0m5 0m8 0m-619 1 1 2zm31 0 1 2zm3 0m15 0m29 0m12 0m107 0m14 0m53 0 1 2zm3 0 1 2zm8 0m57 0m56 0m33 0-1 2 4-2zm189 0m8 0m-541 1m6 0m6 0m7 0m112 0m62 0 1 2zm63 0m65 0m16 0v2h4v-2zm68 0m69 0 1 2zm14 0 1 2zm38 0m13 0-2 3 4-2zm73 0m-694 1m6 0m47 0m40 0 1 2zm7 0m168 0 1 2zm11 0m5 0m124 0m5 0v1h5v-1zm68 0m13 0m118 0m-600 1m69 0m18 0m138 0m34 0m3 0 1 2zm4 0m5 0m151 0m177 0m-610 1m6 0m6 0m56 0 1 2zm23 0m6 0m184 0m112 0m35 0m128 0 1 2zm14 0 1 2zm38 0m9 0m74 0m-753 1m75 0m51 0m26 0m6 0m173 0 1 2zm3 0-1 5 2-2zm4 0m4 0 1 2zm54 0m65 0m24 0m193 0m76 0m-755 1m77 0m64 0m6 0m11 0v3zm125 0m65 0m50 0m71 0m4 0v1h9v-1zm78 0m83 0 1 2zm43 0m-678 1m79 0m45 0m3 0 1 2zm4 0 1 3zm22 0m129 0m50 0 1 2zm7 0m4 0m5 0v3zm198 0m7 0m68 0 1 2zm56 0m-678 1-6 11-1 10h1l4-13 3-6zm81 0m67 0m5 0m190 0 1 2zm199 0m19 0m76 0 1 2zm39 0m-670 1m77 0m41 0m34 0m120 0-3 3 1 2 4-5zm54 0 1 2zm7 0m153 0m131 0 1 3zm132 0m-750 1m79 0m39 0 1 2zm4 0 1 2zm4 0-8 15-7 10-2 5 1 3 12-18 5-11zm26 0m178 0 1 2zm7 0 1 2zm5 0m125 0m6 0m5 0 4 1zm-479 1v3zm82 0m60 0m10 0m7 0-3 3 1 2 3-3zm175 0m8 0 1 2zm292 0m118 0m5 0m-672 1m33 0-6 10-5 12-2 8v5l2-3 8-16 7-12-1-2-4 6 2-8zm4 0 1 2zm205 0-1 5 2-3zm3 0-1 5 2-2zm7 0 1 2zm59 0m149 0m75 0 1 2zm127 0m6 0 1 6 1-4zm-707 1 1 2 2-1zm105 0m182 0 1 2zm8 0m188 0m10 0m13 0m-554 1 1 2zm4 0m148 0m120 0 1 2zm66 0 1 2zm9 0m190 0m18 0m68 0 1 2zm-572 1m283 0 1 2zm8 0m4 0m-347 1-4 10-1 11 2 6h1l2-17 1-10zm4 0m49 0m105 0m114 0m66 0 1 2zm226 0m61 0 1 2zm127 0m-749 1 1 2zm148 0m6 0m7 0m159 0 1 4zm8 0-1 4 1 9h1l1-8-1-5zm3 0 1 2zm12 0m52 0m135 0m11 0v2l2-1zm-537 1m156 0-2 4 3-2zm174 0 1 3zm4 0m197 0m12 0m76 0 1 2zm127 0 1 2zm5 0v6h1v-6zm-756 1 1 2zm154 0m109 0m281 0m5 0 1 2 2-1zm-545 1m149 0m109 0 1 2zm69 0 1 2zm15 0m279 0 1 2zm-626 1 1 2zm4 0 1 2zm35 0m10 0m104 0m182 0 1 2zm4 0m7 0m186 0m27 0m-400 1m103 0m83 0 1 2zm282 0m97 0m-721 1 1 3zm149 0m6 0m176 0 1 4zm4 0m59 0m141 0 1 2 2-1zm90 0 1 2zm97 0m8 0m-734 1 1 2zm152 0m6 0m166 0v15h1v-15zm21 0m55 0m111 0m12 0m45 0m108 0 1 3zm59 0m24 0 1 2zm-212 1 1 2 2-1zm72 0m11 0m42 0m-669 1 1 3zm56 0m25 0m73 0m181 0m6 0m4 0m106 0m100 0m119 0 1 32h1l1-7v-15l-2-10zm55 0m8 0m-678 1m23 0m75 0m166 0v5h1v-5zm12 0 1 4zm13 0m5 0m154 0m49 0m65 0m11 0m93 0m5 0m-672 1m12 0m9 0m265 0m8 0m107 0m11 0m43 0m5 0m6 0m33 0m76 0m45 0 1 4zm29 0m19 0m12 0m-746 1v7h1v-7zm11 0-1 3v7h1l1-10zm47 0 1 2zm7 0m19 0-9 6-3 5v5l5-5 1-4 9-6zm262 0 1 2zm13 0m49 0m74 0m56 0 1 2 2-1zm7 0m85 0m39 0m66 0m-660 1m88 0m7 0m184 0m4 0m95 0m7 0m12 0m15 0m12 0m52 0 1 3 2-1zm22 0m69 0m74 0m24 0m7 0m-683 1m10 0m95 0 1 2zm188 0m131 0m15 0m12 0m31 0m85 0m12 0m36 0m-606 1m14 0m255 0 1 4zm14 0m48 0m61 0m11 0m16 0m29 0m5 0m7 0v3l3 1-1-4zm25 0m74 0m38 0m47 0 1 2zm20 0m4 0m7 0m-677 1-6 9-3 10v16l4 11 3 3-3-9-3-11h2l1 3v-12l2 11 3 7 1-3-3-10v-14l4-11zm14 0m83 0m177 0m61 0m75 0v2h2v-2zm78 0 2 2v-2zm66 0m62 0v19h1v-19zm51 0m-703 1m48 0m58 0m26 0m188 0m53 0m62 0 1 2 1-2zm16 0v3h2l-1-3zm12 0m41 0 1 3 3-1-1-2zm94 0 2 3v-3zm12 0m26 0 1 2zm47 0 1 2zm24 0m7 0 1 2zm-715 1m232 0m237 0v2l3-1zm14 0m50 0m132 0 1 2zm40 0m-707 1-11 8-7 7-6 10-2 10 2 9 3 3v-11l4-12 7-11 12-12zm48 0m60 0m26 0m94 0m5 0m198 0v2h2v-2zm11 0 2 2 1-2zm17 0 1 3 2-2zm30 0 1 2h2v-2zm6 0 1 4h2v-4zm19 0 2 3 2-1-1-2zm22 0m59 0m53 0 1 2zm39 0 1 2zm24 0m-578 1m94 0m250 0 1 3h2v-2zm138 0m25 0 1 2zm68 0 1 2zm10 0 1 3zm-749 1 1 2zm257 0m99 0m99 0m12 0v2l2-1zm11 0 2 2 1-2zm18 0v3h2v-3zm131 0m92 0 2 10v23l2-4 1-6v-10l-3-11zm24 0 1 2zm-707 1m93 0m8 0m26 0m93 0m99 0m159 0v2l3 1-1-3zm18 0 2 3h2v-2zm22 0m74 0m37 0 1 2zm-630 1m134 0 1 2zm86 0m152 0m76 0 1 2h2v-2zm72 0m185 0 1 2zm10 0v13h1v-13zm-716 1m375 0m51 0m11 0 1 2h2v-2zm30 0 1 2h3v-2zm60 0m111 0 1 3zm44 0m-715 1m32 0m128 0m7 0m15 0m306 0v2h2v-2zm31 0 2 3h2v-3zm16 0m4 0 2 3h2l-1-3zm22 0m68 0m114 0 1 4zm-712 1m88 0 1 2zm6 0m56 0-2 4 4-2zm283 0 2 2v-2zm12 0 2 2v-2zm31 0 1 3h2l-1-3zm123 0m35 0 1 2zm51 0 1 2zm24 0 1 3zm-739 1m4 0m24 0-12 12-5 10v12h1l2-12 4-8 9-10 3-4zm99 0m38 0m328 0 1 3h2v-3zm32 0 2 4h2v-3zm21 0 2 3 2-1zm-489 1-3 4-2 9v17l4 10 7 8 2-1-6-10-3-8v-20l2-9zm69 0m38 0m149 0 1 2zm40 0m51 0m52 0m12 0v2l3-1zm12 0v2h3v-2zm32 0v3l4 1v-3zm-395 1m5 0m230 0m54 0m93 0v3l3 1-1-4zm172 0 1 3zm-661 1m115 0m45 0m316 0 1 3h2l-1-3zm46 0 3 4 2-1-3-3zm23 0v2l2-1zm110 0 1 2zm51 0 1 3zm-707 1m115 0m45 0m156 0m26 0m110 0m12 0 1 2h2v-2zm-465 1m115 0 1 2zm45 0m8 0v3zm147 0m27 0m155 0v3l4 1v-3zm14 0v2l4 1-1-3zm-512 1m134 0v6h1v-6zm167 0 1 3zm14 0m6 0m75 0m63 0 1 2 2-1zm13 0v2l3-1zm12 0 2 3h2v-3zm49 0m-534 1m116 0m4 0m195 0m5 0m16 0 1 2zm7 0m56 0m136 0 2 3 2-1zm-422 1-4 11v5l7-14-1-2zm62 0-1 4h2l1-3zm8 0-1 4 4-2-1-2zm130 0m5 0-1 2 3-1zm7 0m17 0m5 0m107 0m12 0v2l3-1zm40 0 2 4h2l-1-3zm14 0 3 4 2-1-3-3zm191 0v12h1v-12zm-712 1m46 0m115 0m152 0m11 0-8 6-5 8 1 2 6-8 8-7zm23 0m132 0 1 2 3-1zm14 0v2l4 1-1-3zm127 0m117 0 1 3zm-738 1m168 0 1 2 1-2zm145 0m5 0m13 0m12 0m400 0 1 2zm-744 1 1 2zm47 0-4 9v12l3 8 7 9 3 2-7-14-2-7v-11l1-8zm86 0 1 2zm184 0-3 3 1 2 4-5zm13 0-9 7-5 7-1 7 8-12 9-8zm8 0 1 2zm124 0m12 0 1 2 3-1zm57 0m16 0m-421 1m11 0-5 16-6 16-10 18-7 10-7 13-2 7v8h1l4-13 7-13 10-15 5-8-8 16-8 14 1 2 12-18 6-11 1 4 5-14v-3l3 1 3-19v-7h-1l-4 15-3 8v3h-2l5-16 1-5v-9zm165 0m41 0m4 0m5 0m49 0m54 0m33 0v2l3 1v-3zm14 0v3l4 1-1-3zm14 0 1 3 4 1-1-3zm16 0v2l3 1-1-3zm16 0m132 0 1 3zm-681 1-4 8v10h1l3-14 1-4zm120 0m72 0-1 4 4-2-1-2zm121 0m23 0m16 0m116 0 1 2 2-1zm257 0 1 2zm19 0m-651 1m33 0 1 2zm41 0 1 2zm8 0-1 3 3-1v-2zm8 0-1 4 3-1-1-3zm105 0v5h1v-5zm12 0 1 2zm34 0-8 6-6 9 1 4 5-9 10-10zm9 0m54 0 1 3 3-1zm84 0 3 3v-3zm196 0 1 4zm-544 1 1 3zm158 0 1 3zm49 0m6 0m115 0m34 0 1 3h3v-2zm15 0 1 4 3 1-1-4zm-479 1m51 0m5 0m38 0-8 16-2 10 1 12 2 2 8-14 6-17-1-3-10 22 1-7-3 4 3-11 4-12zm189 0v3zm24 0m12 0m41 0 1 3h2l-1-3zm64 0m8 0m11 0 3 3v-3zm51 0 1 3 3 1-2-4zm16 0m15 0m-537 1m11 0m99 0m207 0m6 0m3 0m4 0m52 0m55 0m32 0v3l3 1-2-4zm54 0m15 0m123 0 1 2zm24 0 1 2zm-686 1m179 0-1 4 4-2-1-2zm95 0 1 2zm43 0m51 0v3h3v-2zm17 0m64 0 3 2v-2zm76 0m-514 1m8 0m95 0 1 3zm56 0-1 4 3-1v-3zm101 0 1 3zm8 0 1 2zm15 0 1 2zm21 0-7 8 1 2 8-9zm11 0m19 0-2 4 3-2zm33 0v2l3 1v-2zm64 0m20 0 2 4 1-3zm22 0 1 3h3v-2zm174 0 1 3zm-659 1m15 0m96 0 1 2zm43 0-1 2h2zm8 0-1 3 3-1zm159 0-8 9 1 2 8-9zm9 0m33 0 3 3v-3zm81 0m56 0v2l4 2v-3zm16 0m16 0m-521 1m8 0 1 2zm257 0m5 0 1 2zm13 0 1 2zm32 0m8 0m39 0 1 3h2l-1-3zm83 0 1 3h2v-2zm21 0 2 4 1-3zm40 0 3 3-1-3zm16 0m62 0m102 0 1 4zm-698 1 1 2zm15 0m30 0 1 3zm66 0 1 2zm76 0-2 4 4-1-1-3zm87 0 1 3zm75 0-1 3 3-1zm20 0v3h2l-1-3zm81 0 1 3 2-2zm213 0m-652 1 1 2zm8 0-4 11v17l4 11 7 8 12 6 3-1-9-6-7-8-5-12-1-4v-16l1-6zm66 0m193 0m5 0m11 0 1 2zm40 0m5 0m5 0-1 2h2zm19 0 1 3v-3zm22 0m85 0 2 4 2-3zm23 0 1 3 3 1-2-4zm105 0m61 0 1 2zm-660 1 1 3zm15 0 1 2zm164 0-1 3h3l-1-3zm148 0m7 0m5 0m41 0v2h2v-2zm130 0 2 3 2-1zm32 0m-531 1 1 3zm36 0 1 3zm38 0 1 2zm26 0 1 2zm23 0v8h1v-8zm60 0-2 6 4-1 1-2zm82 0 1 2zm4 0m18 0 1 3zm166 0 2 4 1-3zm21 0v2l4 2v-3zm42 0m61 0m142 0v12h1v-12zm-716 1 1 3zm125 0v5h1v-5zm21 0 1 2 1-2zm9 0v2h2v-2zm125 0 1 3zm39 0m5 0m9 0-1 3 3-1zm21 0 1 3v-3zm6 0 2 2v-2zm155 0m60 0m109 0 1 3zm-646 1m32 0 1 3zm3 0 1 2zm23 0 1 3zm171 0m41 0m15 0m5 0m20 0 2 2 1-2zm87 0m7 0 3 3v-3zm21 0 1 3h3v-2zm24 0 4 4-2-4zm89 0m111 0 1 3zm-691 1 1 3zm38 0 1 2zm5 0 1 2zm224 0m20 0 1 4zm153 0m85 0m56 0 5 6 8 7 9 12 3 3-2-5-7-10-5-5-9-8zm-578 1-1 5v17l4 12 3 3-3-10-2-13v-14zm78 0-4 13v23h1l4-32zm52 0 1 3zm41 0v4l3-3zm16 0-2 4v3h3l1-5zm110 0 1 2zm11 0m51 0v2l3-1zm6 0 2 2v-2zm92 0-1 2 4 2v-3zm49 0 1 2 2-1zm17 0m-487 1 1 2zm5 0m29 0 1 3zm3 0 1 3zm23 0 1 2zm66 0-1 4 3-1-1-3zm103 0m42 0m7 0m13 0m10 0 1 3v-3zm5 0v2h2v-2zm5 0 1 3 2-2zm6 0 2 2v-2zm127 0v2l3 1v-2zm204 0m3 0 1 3zm-718 1 1 3zm73 0m111 0-1 2h2zm143 0 1 2zm5 0 1 2zm31 0m117 0 1 3h2l-1-3zm-453 1 1 4zm41 0 1 3v-3zm6 0m52 0-1 5 2-2zm30 0v5h1v-5zm162 0v6h1v-6zm19 0m136 0m29 0v2l4 1-2-3zm26 0m186 0 1 2zm-639 1m25 0 1 4zm3 0-2 9-1-5h-1l-1 5v13l3 15h1l1-25 1-12zm105 0-1 4h3l1-3zm114 0 1 4zm67 0 1 2zm7 0m78 0m55 0 1 2 2-1zm17 0m171 0 1 2zm-716 1m75 0m250 0 1 2zm5 0m5 0m30 0m5 0v2h2v-2zm6 0 1 2zm5 0 2 2v-2zm93 0m19 0 1 3h2l-1-3zm24 0m29 0m81 0m-615 1 1 2zm57 0 2 4 5 4h2v-2zm90 0 1 4zm4 0 1 4zm34 0v3h3l-1-3zm25 0-1 6 4-2-1-4zm65 0m20 0-5 14-2 9-1 4 1 4h2l1-5h2l3-21v-5zm52 0m126 0 2 4v-3zm33 0v2l3 1-1-3zm110 0m84 0m3 0 1 2zm-323 1m116 0 1 3 3 1v-2zm121 0m-616 1m137-3-4 16-5 13-7 12-12 16-4 8 1 3 10-14 11-13 6-9-6 11-12 15-4 7 1 2 8-10 9-10 4-4-9 12-7 9 1 2 16-16 8-14 5-13 3-12-1-4-6 15v-3l2-6-1-4-4 10v2h-2l4-12v-6l-2 4-6 16 4-16v-7zm38 3v2h2v-2zm97 0 1 2zm3 0m98 0m91 0 3 3-1-3zm59 0m175 0m-645 1m147 0-1 4h3l-1-4zm156 0m5 0m5 0m120 0 1 3 3 1-1-3zm38 0m65 0m112 0m-706 1m6 0m226 0-6 21v3h2l3-7 2-10v-7zm46 0 1 2zm185 0m55 0v2l2-1zm77 0m28 0m-616 1m143 0 1 3zm46 0-1 3h3l-1-3zm186 0m101 0 1 3 3-1zm113 0m28 0m77 0m4 0m30 0 1 2zm3 0 1 4zm-737 1m278 0 1 2zm97 0m144 0m77 0m-495 1v6h1v-6zm59 0-4 12-10 20-10 15-3 3 1 2 9-9 10-15 6-12 2-11v-5zm17 0m8 0v2h2v-2zm25 0-1 4h3v-3zm89 0v7l3 3 1-2-3-8zm64 0m111 0 3 3-1-3zm33 0 3 3 1-2zm90 0m-466 1 1 4zm134 0 1 3zm202 0m30 0v2l4 1-3-3zm101 0 6 7 8 7v-3l-12-11zm27 0m9 0m68 0m-434 1 1 2zm200 0m58 0m-325 1-1 3h3v-3zm287 0 2 3 2-1zm39 0m67 0m41 0m98 0m3 0 1 3zm-453 1m344 0m-497 1 1 3zm34 0 1 3zm27 0v2l3-1zm75 0 1 2zm3 0m211 0 1 2 2-1zm36 0m120 0m3 0m-539 1v11h1v-11zm82 0 1 2zm282 0m8 0 1 2 2-1zm45 0m94 0m-555 1m151 0-1 3 2 1 2-1-1-3zm63 0m195 0m41 0 1 2 2-1zm123 0m8 0m3 0m95 0 1 2zm-678 1m72 0 1 4zm138 0m31 0v12h1v-12zm198 0 1 3 2-1zm104 0m-550 1m8 0m140 0-1 3 3-1zm24 0-1 3 4-1v-2zm57 0m207 0 1 3 3-1zm115 0m12 0m17 0m8 0m3 0m-590 1m112 0 1 4zm105 0m209 0m48 0m77 0m12 0m120 0 1 2zm-682 1m135 0v2l3-1zm27 0-1 4 3-1-1-3zm264 0 1 2 2-1zm125 0m36 0m3 0m-514 1 1 2zm163 0m13 0m210 0m90 0m28 0m-577 1m149 0v3l3-1-1-2zm86 0 1 2zm10 0m203 0m13 0m89 0m11 0m24 0m3 0 1 2zm90 0m-571 1-1 6-3 1-9 17-9 12v3l11-11 2-1-6 8-10 10-13 9-9 7-5 5-4 5-3 7-1 5v8h1l3-13 6-9 8-8 11-8 12-7 1 2-5 2-13 9-10 9-6 9-3 10v11l1 5h1l1-13 7-16 6-7 11-8 6-4 3-5 10-8v-3l-4 4 2-4 9-13 6-15 1-7-2 3-7 14v2h-2l5-12 2-6v-5zm5 0 1 4zm53 0-1 4 3-1-1-3zm55 0m27 0m7 0m195 0m79 0m23 0m11 0m7 0 1 3v-3zm9 0m15 0m-521 1 1 2zm67 0-1 2 3-1zm95 0m204 0 1 2 2-1zm120 0m119 0m-647 1m38 0 1 2zm144 0m34 0 1 4zm2 0 1 2zm2 0m170 0m9 0m100 0m30 0m20 0m7 0m3 0m5 0m-523 1 1 2zm85 0-2 3 4-1zm77 0m22 0m176 0m36 0m63 0m30 0m4 0m7 0 1 2zm105 0m-647 1 1 2zm38 0 1 2zm165 0m21 0m8 0m270 0m30 0m19 0m7 0m3 0 1 2zm5 0m-450 1-1 2h3v-2zm106 0m206 0m75 0m40 0 1 2zm103 0m-609 1 1 2zm4 0 1 2zm65 0 1 2zm27 0-2 4 4-2zm69 0m3 0 1 2zm10 0m5 0m197 0m87 0m29 0m19 0 1 2zm15 0m-568 1m180 0m22 0m17 0 1 2zm189 0m12 0m86 0 2 4 16 16 5 6v-3l-9-10-13-13zm29 0m10 0 1 2zm15 0m3 0m-526 1 1 2zm4 0 1 2zm49 0m34 0-2 3h3zm57 0m20 0m4 0m17 0m187 0m127 0m33 0m-570 1 1 3zm141 0-2 4 4-2zm33 0 1 3 2-1zm31 0v3zm13 0m329 0 1 2zm8 0m7 0m-617 1 1 3v-3zm92 0 1 2zm77 0-1 2h2zm107 0m217 0m100 0m27 0m6 0m-568 1m38 0m120 0 1 3 1-3zm39 0m227 0m112 0m9 0 1 2zm-549 1 1 3zm37 0 1 2zm54 0 1 3zm41 0-2 3 4-1zm15 0-1 4 4-4zm21 0-1 4h2l1-4zm32 0m4 0m53 0m160 0m12 0m138 0 1 2zm6 0m-625 1m55 0 1 2zm38 0m139 0m19 0m4 0-13 13 2 2 12-13zm7 0 1 3zm46 0 1 2zm152 0m94 0m39 0m9 0 1 2zm14 0m70 0m-685 1m57 0 1 2zm30 0 1 2zm85 0-1 2 3-1zm40 0m45 0v5h1v-5zm203 0m94 0m39 0m32 0m-624 1m61 0 1 2zm29 0m97 0-1 3 3-1v-2zm16 0 1 2zm102 0 1 2zm243 0m6 0m61 0 1 2zm3 0 1 2zm-617 1m48 0 1 2zm3 0 1 2zm3 0 1 3zm30 0m55 0 1 3zm83 0m66 0m23 0m174 0m63 0m6 0m38 0m8 0m24 0m-623 1m200 0m42 0m10 0v6h1v-6zm50 0 1 2zm246 0m6 0 6 7 5 3-2-4-7-6zm26 0m-498 1m51 0m42 0-1 2h2zm16 0v3zm15 0 1 2 1-2zm35 0m48 0m20 0 1 3zm154 0m86 0m32 0 1 2zm19 0m17 0 1 2zm-568 1 1 3zm3 0-3 10v-7l-2 2v9h3l4-7-1-7zm3 0 1 2zm82 0-8 16-7 8-3 3 2 1-7 6-19 12-8 9-7 14-1 5v7l2 8h1l1-13 5-13 8-11 11-9 11-7 1 1-14 10-10 9-6 10-3 10 2 2 5-12 5-7v-2l4-2 13-11 8-6-2 4-14 12-7 8-4 9v12l1 6h1l1-13 4-10 7-9 7-7 8-7 8-8 5-8-1-2-6 7 8-14 2-6v-5l-2 3-7 14-9 10 2-4 7-10 6-16zm5 0 1 2zm98 0m52 0m9 0-4 9-2 14 1 11h1l1-15 4-16zm5 0m6 0 1 3zm5 0v6h1v-6zm233 0m64 0m10 0m-607 1m64 0m82 0m49 0m27 0m10 0m6 0m41 0m58 0m197 0m31 0m-450 1m48 0-1 2 3-1zm17 0-1 2h2zm21 0m60 0m6 0m3 0 1 2zm4 0m39 0 1 4zm8 0 1 2zm3 0m14 0m19 0m166 0m12 0 6 7 15 16 6 7v-3l-4-6-9-10-12-11zm31 0m18 0m-547 1 1 2zm87 0 1 4zm95 0m11 0-1 2h2zm3 0 1 3zm19 0m26 0m10 0 1 2zm3 0 1 3zm6 0 1 3zm61 0m209 0m31 0 1 2zm3 0m-560 1-10 16-9 10-5 6 1 2 17-17 7-14zm21 0m52 0m39 0m33 0m32 0m30 0m12 0m6 0m3 0m4 0m52 0m14 0m185 0m6 0m38 0m-416 1m17 0-1 2 3-1zm16 0m32 0m11 0m19 0m47 0v7h1v-7zm28 0 1 3zm18 0 1 2zm185 0 1 2zm6 0m-418 1m78 0m25 0m30 0 1 2zm4 0m3 0m6 0m3 0m3 0 1 2zm3 0 1 2zm4 0 1 2zm5 0m10 0 1 4zm3 0v5h1v-5zm29 0 1 4zm7 0 1 2zm10 0m16 0m4 0m23 0m153 0m37 0m33 0m-490 1 1 2zm47 0m16 0-1 2h2zm24 0m15 0-15 15-9 16-9 15-9 16-6 17-2 10v17l3 12 1-4-1-5-1-19h2v10l3 14 8 20 1-3-7-21-2-8v-22l1-5v19l4 16 6 15 1-3-6-21-1-8v-16l2-13 1-6h2l-2 6-1 7v16l3 16 5 15 1-4-4-15-1-7v-20l3-14 8-21 1-4h2l-4 11-2 9v12h1v-11h2v8l4 14 9 19 7 14 1-4-12-26-3-7 1-7-2-10v-15l2-12h2l-3 14v9l3 15 13 26 1-3-10-21-1-7-2-6-1-13v-8h2l-1 4v10l2 9 2 2-1-9v-14l5-17 1-4-2 1-2-2-5 8 7-14 6-8zm6 0m6 0m5 0m24 0m75 0 1 2zm11 0m16 0m4 0m46 0m119 0 2 6 6 9 1-2-8-13zm7 0 1 3v-3zm37 0m-516 1 1 2zm103 0m62 0m6 0m4 0 1 3zm16 0-5 8-4 13v5l2-4 6-16 2-6zm4 0m3 0m6 0m3 0m3 0 1 2zm3 0 1 2zm9 0 1 3zm23 0v11h1v-11zm28 0 1 3zm7 0m15 0m9 0m4 0m4 0m18 0m3 0m21 0m163 0m28 0m-488 1v3zm37 0m25 0m45 0m3 0m27 0 1 2zm3 0m3 0m17 0m52 0 1 3zm15 0m4 0m21 0m18 0m24 0m4 0m110 0m-466 1 1 2zm111 0m17 0m36 0m3 0m37 0m3 0m3 0 1 3zm68 0m4 0m8 0 1 2zm16 0m26 0m21 0m4 0m110 0 1 2zm52 0m-409 1m25 0m28 0m19 0m12 0 1 2zm3 0m3 0m13 0m20 0v6h1v-6zm10 0 1 3zm32 0 1 3zm28 0m4 0m4 0m4 0m33 0m6 0m4 0m-359 1 1 2zm57 0-5 6 1 2 5-6zm45 0m41 0m20 0m7 0m34 0 1 2zm3 0 1 2zm11 0m19 0v13h1v-13zm31 0v13h1v-13zm4 0 1 4zm8 0m4 0m8 0 1 2zm8 0m13 0m14 0m4 0m3 0m16 0m6 0m4 0m109 0m-479 1 1 2zm93 0v6h1v-6zm18 0m17 0m44 0m7 0m4 0m21 0 1 2zm3 0 1 2zm3 0 1 2zm10 0 1 2zm3 0 1 2zm10 0 1 2zm86 0m26 0 1 2zm3 0m13 0m6 0 2 4v-3zm4 0m109 0 1 2zm52 0m-523 1 1 2zm162 0m4 0m3 0m4 0m9 0m25 0 1 3zm75 0 1 2zm4 0m8 0 1 2zm13 0m4 0m4 0m4 0m10 0m4 0m30 0 1 3v-3zm126 0m23 0m-572 1m39 0m11 0-7 11-9 9 1 2 2-2 2 2 10-11 2-6v-5zm98 0-4 16-6 12h2l-9 11-3 2 1 2 2-1 1 2 8-9 7-14 2-12v-9zm21 0m17 0m35 0 1 2zm4 0m7 0m9 0m13 0 1 2zm3 0 1 2zm3 0 1 2zm4 0 1 2zm74 0 1 3zm25 0m34 0 1 2zm3 0 1 2zm13 0m119 0 2 5 8 12 5 6v-3l-10-15zm18 0m23 0 1 2zm11 0m-525 1 1 2zm165 0v3zm4 0m42 0 1 3zm3 0 1 2zm70 0 1 3zm25 0m4 0m4 0m4 0m14 0m16 0m4 0m137 0m-350 1m19 0m7 0m13 0m16 0 1 3zm3 0 1 3zm7 0 1 3zm68 0 1 3zm13 0m8 0m9 0m37 0 1 2zm14 0 1 6h3l-2-5zm6 0 2 5 6 13 1 5v22l2-3v-21l-5-14-5-7zm4 0 1 3v-3zm127 0m22 0m11 0m-527 1 1 3zm116 0m45 0v3zm7 0 1 2zm4 0m9 0 1 2zm6 0m8 0m10 0 1 2zm9 0 1 4zm11 0m86 0m4 0m4 0m14 0m4 0 1 2zm3 0m13 0m142 0m22 0m-484 1m49 0 1 4zm82 0v3zm7 0m40 0 1 4zm70 0 1 3zm17 0m194 0m36 0m-496 1m7 0m67 0m17 0m44 0m13 0-6 12-2 8v18l2 9h1v-20l2-13 4-12zm6 0m11 0 1 3zm3 0 1 3zm86 0 1 2zm4 0m22 0m4 0m4 0 1 2zm14 0m7 0 1 2zm3 0 1 2zm10 0m15 0 1 2zm124 0m25 0m104 0m-623 1 1 3zm32 0m42 0m12 0 1 4zm81 0 1 2zm4 0m24 0m10 0 1 3zm3 0 1 4zm70 0 1 3zm22 0 1 2zm39 0 1 2zm17 0 1 2zm164 0m10 0m-499 1m183 0 1 4zm100 0m4 0m53 0 2 6 2 2-1-5zm3 0m98 0m15 0 1 3v-3zm12 0m123 0m-592 1m43 0 1 2zm9 0 1 3zm30 0m54 0 1 2zm4 0m16 0 1 2zm11 0 1 3zm3 0 1 3zm83 0 1 3zm9 0 1 2zm18 0m12 0m14 0 1 2zm7 0 1 3zm3 0 1 3zm11 0 1 3zm5 0m111 0m20 0m7 0m21 0m10 0 1 2zm-502 1m165 0 1 2zm17 0 1 4zm77 0 1 3zm13 0m14 0 1 2zm25 0 1 3zm20 0m15 0m87 0m35 0m4 0m120 0m-622 1 1 2zm23 0m63 0 1 3zm35 0m45 0 1 2zm4 0m5 0m11 0 1 3zm126 0m8 0m44 0 1 2zm13 0 1 2zm87 0m26 0 1 2zm5 0m28 0m-506 1 1 2zm5 0m58-7-5 12-11 12-9 8 1 2-10 13-4 9 1 4 4-10 8-11 14-14-4 6-10 11-7 12-1 6 2-2 5-10 11-12 12-11 2-1-5 6 1 2 6-5 1-3h-2l6-12-1-3-4 8 2-10-3 4-7 11-2 1 8-14 2-5zm117 7v5h1v-5zm8 0 1 2zm3 0v7h1v-7zm72 0 1 2zm23 0 1 2zm21 0m27 0 1 2zm8 0 1 2zm3 0 1 2zm23 0m71 0m9 0 6 7 9 11 8 13 5 11 3-1-2-6-7-11-10-14-5-6-5-4zm11 0m20 0m37 0m-522 1 1 3zm43 0m74 0m37 0 1 3zm4 0m5 0m26 0 1 4zm52 0v7h1v-7zm65 0 1 2zm21 0 1 4zm7 0v5h1v-5zm3 0 1 4zm17 0 1 2zm13 0 1 2zm3 0m76 0 6 7 6 10 5 15 2-2 3 11 1-4-3-11-1-7-5-9-7-7-5-3zm20 0m14 0m9 0m4 0m116 0m-604 1m37 0m56 0m27 0m78 0v14h1v-14zm71 0m9 0m19 0m8 0m21 0 1 4zm18 0 1 8v15l-2 9 3-4 1-4v-17l-2-7zm118 0m19 0m4 0m4 0m29 0 1 2zm-541 1-11 12 1 2 8-7 3-4zm27 0m31 0m49 0 1 2zm68 0 1 2zm14 0m3 0 1 4zm9 0m96 0 1 2zm14 0 1 2zm59 0 1 2zm3 0 1 2zm13 0 1 2zm3 0m5 0m92 0 1 2zm13 0m6 0 1 2zm27 0m-515 1 1 2zm5 0m35 0m46 0 1 4zm68 0 1 3zm9 0 1 2zm101 0v6h1v-6zm102 0 3 15v8l-1 10 2-3 1-5v-13l-3-10zm117 0m-444 1m269 0 1 2zm65 0 1 2zm5 0m92 0m19 0m4 0m4 0m19 0m9 0 1 2zm-488 1m120 0 1 2zm14 0 1 3zm15 0v16h1v-16zm3 0v10h1v-10zm115 0m50 0 1 3zm3 0 1 3zm13 0 1 2zm9 0 1 2zm92 0m13 0m10 0m4 0m8 0 1 2zm-507 1 1 3zm37 0m53 0 1 2zm33 0m31 0 1 4zm9 0 1 2zm133 0 1 3zm17 0 1 2zm30 0 1 2zm130 0m18 0m-456 1m51 0-7 13-8 10-8 7-1-2-8 7 1 3 8-5-16 16 1 2 10-10-2 4v3l11-10 10-8 7-7 7-11-1-2-10 13-10 10-5 3 15-15 1-3h-2l7-12 1-6zm89 0v8h1v-8zm165 0 1 4zm32 0 1 3zm3 0m6 0m63 0m30 0 1 3v-3zm26 0m8 0 1 2zm-414 1m85 0v8h1v-8zm151 0 1 4zm26 0v18h1v-18zm3 0 1 4zm19 0m67 0m47 0m5 0m4 0m26 0 1 2zm-542 1m104 0 1 2zm68 0 1 2zm5 0 1 4zm181 0 1 3zm39 0m64 0m47 0 1 2zm16 0 1 2zm-541 1m4 0m12 0m109 0 1 2zm60 0v5h1v-5zm18 0v14h1v-14zm205 0 1 2zm71 0m29 0m26 0m-542 1m7 0m4 0m12 0m105 0 1 2zm285 0 1 4zm6 0m4 0m3 0m62 0m29 0 1 3v-3zm6 0m11 0m16 0 1 2zm-551 1m7 0m4 0m148 0m242 0-1 18 2-4v-14zm78 0m11 0 8 16 4 10 1-3-4-12-5-8zm35 0m44 0 1 3zm-563 1m4 0m123 0 1 2zm69 0v20l3 11 2 3-1-7-2-9-1-18zm216 0 1 4zm3 0 1 2zm4 0m3 0m52 0 2 4 8 10 8 15 2 1-3-9-6-10-9-10zm56 0m-537 1m6 0m123 0m392 0m6 0m26 0m-548 1m128 0 1 2zm283 0v17h1v-17zm11 0 1 2zm3 0m92 0m6 0m10 0m-534 1m10 0m114 0m247 0 1 2zm48 0 1 2zm100 0 1 2zm6 0m25 0 1 2zm-551 1m10 0m358 0 1 3zm49 0v14h1v-14zm8 0 1 2zm3 0m108 0m-412 1m67 0m23 0 1 4zm307 0m47 0v17h1v-17zm-445 1 1 2zm95 0 1 3zm27 0m181 0 1 3zm3 0 1 2zm68 0m25 0m15 0m-516 1m2 0-1 2-2-1-4 4-8 6 2 2 7-6 12-6v-1zm398 0 1 3zm77 0m25 0 1 2zm29 0m-541 1m23 0m88 0m323 0m93 0m-530 1m24 0m89 0v3zm306 0 1 3zm3 0m94 0m-517 1m23 0-13 7-7 8-2 5 1 3 7-10 16-12zm337 0m79 0m4 0m75 0m-520 1m98 0m42 0 1 2zm286 0 1 3zm16 0m24 0m-468 1-5 5 1 2 6-7zm81 0m18 0m28 0m10 0m9 0 1 3zm62 0 1 3zm217 0 1 3zm16 0m7 0m21 0m36 0m-425 1m18 0m38 0 1 2zm283 0v11h1v-11zm12 0m14 0m4 0 1 2zm75 0m-495 1m50 0m18 0m44 0 1 2zm250 0 1 3zm51 0m28 0m36 0m-478 1m50 0m18 0m29 0m10 0 1 2zm10 0-6 10-6 5 7-10 1-4-5 5-7 8-8 6-10 9-6 7-8 16-3 14 1 6h-1v8l2 4 5 12 7 14 1 3v14l-2-13-1 4v13l-4 11-3 5 4-2 5-5 6-9 3-9v-11l-4-14-6-15-1-5v-16l4-12 7-11 9-11 7-7 2-1 1 2 4-3-9 14-8 17-3 10v16l2 7 1-4-1-19h2v15l3 11 5 10 4 7 1-3-9-19-2-9v-17l4-14 8-15 9-14 1-5-6 8 4-10zm301 0m4 0 1 2zm3 0m18 0 1 3v-3zm-444 1m50 0m47 0-11 11-13 10-8 9 1 2 5-6 11-9 10-8 6-7zm302 0v6h1v-6zm3 0 1 4zm14 0 1 2zm64 0m-481 1m50 0m58 0-7 9-1 2 4-2 5-7zm15 0m241 0 1 2zm4 0 1 4zm38 0m15 0m4 0 1 2zm3 0m73 0m-502 1m50 0m22 0m347 0 2 9 4 12 1-3-6-18zm29 0 2 5 3 3v-3zm35 0 1 2zm-514 1m29 0-1 2 3-1zm51 0m27 0m47 0 1 2zm300 0m4 0 1 2zm3 0m-462 1 1 2zm10 0m70 0m27 0m285 0 1 2zm4 0 1 2zm20 0 1 4zm120 0m-531 1m4 0m3 0m16 0m51 0m27 0m294 0 1 2zm20 0 1 2zm36 0 1 2zm4 0 1 2zm3 0 1 2zm46 0 1 2zm7 0m-517 1 1 2zm9 0 1 2zm19 0m51 0 1 2zm313 0m4 0 1 2zm12 0 1 3zm-403 1m7 0m15 0m364 0m21 0 1 3zm46 0 1 2zm4 0 1 2zm3 0 1 2zm53 0 1 2zm-519 1 1 2zm5 0 1 2zm4 0 1 2zm18 0m52 0m317 0m5 0m47 0v5h1v-5zm23 0m123 0m-582 1m14 0m52 0 1 2zm330 0 1 2zm9 0 1 2zm43 0 1 2zm7 0 1 2zm40 0 1 3zm34 0m-537 1 1 2zm4 0-3 8v20h1l1-17 2-11zm17 0m171 0 1 2zm194 0m5 0m5 0m12 0 1 2zm52 0m8 0m40 0m8 0 1 2zm-521 1 1 2zm12 0 1 2zm13 0m53 0 1 2zm136 0 1 3zm181 0m5 0m8 0 1 2zm54 0 1 3zm7 0 1 2zm5 0m59 0 1 5 1-3zm10 0m-539 1-2 5-1 14 2 10 1-3v-19l1-7zm20 0m110 0-2 3 4-2zm278 0 1 2zm5 0m4 0m15 0v5h1v-5zm30 0m25 0m26 0 1 4zm-440 1-3 10v11h1l2-15 1-6zm121 0m201 0m8 0 1 2zm43 0 1 10 5 12 7 11 8 9v-3l-10-13-7-14-3-12zm20 0 1 5 15 27 3 6 1-3-10-19-9-16zm5 0m17 0m17 0m13 0m9 0m13 0m-533 1 1 4zm387 0m13 0 1 2zm5 0m47 0 1 2zm4 0m9 0 1 2zm17 0m12 0 1 2zm-375 1-14 12-7 8-8 14-4 12-1 9h1l1 11 5 12 2 1-5-15v-11l3-14 8-16 6-8 15-15zm26 0m250 0m33 0 1 3zm106 0m73 0m-619 1m182 0v5h1v-5zm15 0m19 0m190 0 1 2zm5 0 1 2zm5 0m27 0 1 2zm22 0 1 2zm4 0m9 0m17 0m12 0m17 0m9 0m3 0 1 2zm-380 1m340 0m23 0 1 3zm74 0m-582 1v10h1v-10zm202 0 1 2zm192 0m5 0m5 0m21 0 1 3zm34 0m9 0m18 0m11 0m29 0 1 3zm10 0m-348 1m18 0m187 0m5 0m5 0m52 0m14 0 1 2zm18 0 1 2zm11 0m25 0m-495 1-12 11 1 2 13-11v-2zm106 0m9 0m37 0 1 2zm23 0 1 2zm189 0m5 0m31 0 1 2zm156 0m-451 1-9 10-10 15-4 9-1 5v13l3 10 6 10 1-2-4-10-2-9v-10l4-13 7-14 10-12zm39 0 1 4zm17 0m202 0m11 0m29 0 1 2zm25 0m4 0m10 0 1 3v-3zm18 0m11 0m25 0 1 2zm3 0 1 3zm10 0m-395 1m39 0 1 5 1-3zm209 0m11 0m23 0 1 2zm65 0m20 0m-459 1v20h1v-20zm18 0v5h1v-5zm5 0 1 4zm68 0m49 0m14 0 1 2zm185 0m11 0m51 0 1 3zm6 0m4 0m29 0m88 0m-179 1m24 0 1 2zm4 0m45 0 1 2zm19 0m10 0m37 0m-398 1m33 0 1 3zm18 0m97 0m98 0m44 0m28 0 1 2zm4 0m30 0m33 0 1 2zm3 0 1 3zm-438 1m49 0 1 2zm53 0 1 2zm13 0m221 0 1 2zm26 0 1 2zm21 0m20 0m87 0m-508 1 1 4zm17 0m94 0 1 2zm108 0m131 0m37 0 1 2zm15 0 1 2zm20 0m-406 1m50 0 1 2zm36 0 1 2zm19 0m13 0 1 2zm62 0m5 0m13 0m143 0m24 0 1 2zm11 0m31 0m31 0 1 3zm13 0 1 2zm-457 1m102 0 1 2zm237 0m4 0m35 0m15 0 1 3v-3zm21 0m33 0 1 4zm33 0m20 0m-501 1v3zm6 0m50 0m57 0m90 0m5 0m4 0m135 0m37 0m20 0m12 0m-497 1v7h1v-7zm86 0m50 0 1 2zm39 0m10 0 1 2zm10 0 1 2zm12 0m59 0m37 0m5 0m16 0m96 0m4 0m30 0m38 0m6 0m65 0m-478 1 1 2zm6 0m80 0m248 0m8 0m39 0m11 0 1 2zm16 0m6 0m41 0v5h1v-5zm24 0 1 2zm-549 1m64 0 1 2zm11 0m45 0-5 11-3 13v8l3 13 8 16 3 3-8-24-1-6v-17l4-14zm41 0 1 2zm10 0m10 0m81 0m4 0m5 0m5 0m164 0m32 0m7 0m6 0m55 0m-541 1m70 0m88 0m133 0m17 0m100 0m4 0m41 0m11 0m23 0m26 0 1 3zm38 0m-487 1m11 0m88 0m10 0m10 0m116 0m104 0m62 0 1 2zm9 0m14 0m28 0 1 2zm-517 1m70 0m5 0m85 0m111 0m5 0m5 0m5 0m30 0m87 0m41 0m11 0m35 0m54 0m9 0m-554 1m65 0m5 0m96 0m10 0m10 0 1 2zm109 0m8 0m4 0m105 0m56 0 1 2zm9 0m15 0m102 0m-609 1 1 4zm79 0 1 2zm98 0m108 0m137 0m15 0m24 0m11 0m21 0m15 0m62 0 1 2zm-566 1 1 2zm10 0m70 0m108 0m10 0 1 2zm102 0m25 0m5 0m150 0 1 2zm18 0m7 0m53 0m-422 1m333 0m21 0m9 0m7 0m61 0 1 2zm-558 1m65 0m5 0m110 0m245 0m25 0m22 0 1 2zm19 0m7 0m52 0m-566 1m4 0 1 2zm28 0m174 0 1 2zm271 0m21 0m17 0m-518 1 1 3zm34 0m24 0-4 8-9 9-6 9v5l2-4 4-6 1-3 4-2 7-7 2-5zm25 0 1 2zm5 0m57 0 1 2zm55 0m5 0 1 2zm240 0 1 2zm47 0 1 2zm27 0m51 0m8 0m-574 1m28 0-6 7-3 6 1 4 4-8 6-7v-2zm449 0m21 0m10 0m8 0m-512 1m74 0 1 3zm5 0m43 0m71 0m9 0 1 2zm10 0v6h1v-6zm273 0 1 2zm20 0m8 0m50 0m8 0 1 2zm-373 1m240 0m36 0m21 0m19 0m-393 1 1 2zm385 0m9 0m49 0m-491 1 1 3zm63 0 1 2zm303 0m36 0m11 0 1 2zm10 0m11 0 1 2zm9 0 2 4v-3zm56 0 1 2zm-520 1m388 0 1 2zm101 0 1 3zm15 0m9 0 1 2zm-506 1v9h1v-9zm61 0 1 2zm367 0 1 3zm10 0 1 2zm11 0 2 4-1-4zm-483 1m26 0 1 2zm3 0 1 2zm387 0 1 2zm40 0 1 3zm76 0m-533 1m17 0m78 0 1 4zm400 0m47 0 1 2zm7 0m-550 1m17 0m10 0-8 9h3l6-7zm22 0m63 0v14h1v-14zm307 0 1 2zm46 0 1 4zm10 0 1 2zm22 0 2 4v-3zm38 0 1 2zm-519 1m14 0 1 2zm429 0 1 3zm28 0 2 4-1-4zm-488 1m15 0m388 0m18 0 1 3v-3zm20 0 2 5 2 1-2-5zm104 0 1 3zm-546 1 1 2zm15 0m16 0 1 2zm66 0-1 4v12h1l1-16zm172 0m28 0m108 0m73 0 1 2zm41 0 1 2zm19 0 1 3zm27 0m-551 1m259 0 1 2zm15 0 1 3zm14 0 1 5 8 11 6 10v14l-1 7v9h1l3-18v-9l-3-9-7-9-6-9zm166 0v7h1v-7zm18 0m16 0 2 5 5 12 2 12h1v-9l-4-12-5-8zm-503 1 1 3zm14 0m17 0 1 2zm238 0m25 0 1 2zm5 0 1 2zm108 0m18 0 1 2zm38 0 1 3zm29 0 2 10 1 17h1l1-9-2-13-2-5zm7 0m33 0v8h1v-8zm-519 1v3zm25 0 1 2zm230 0 1 2zm42 0m13 0m85 0m160 0m-538 1m145 0 1 3zm17 0v5h1v-5zm81 0 1 2zm22 0 1 6 7 15v11l-6 19-1 4v14l3 10 6 9 9 9 11 6 3-1-10-6-10-9-7-14-2-16 3-14 3-10v-4h2l-6 23v12l2 8h1v-16l5-21v-9l-3-10-9-14zm5 0 1 2zm27 0m99 0 1 2zm54 0 1 2zm8 0m12 0m40 0v12h1v-12zm-546 1 1 4zm5 0 1 3zm30 0m238 0-11 13-8 11-4 10v16h1l2-16 7-14 12-15 2-5zm23 0 1 6 6 14v16l-6 19-1 4v16l4 11 7 9 10 9 13 6 22 6 3-1-16-5-13-5-10-6-8-8-7-13-1-4v-17l7-25v-12l-8-16zm34 0m85 0m38 0 1 2zm54 0 1 2zm47 0v10h1v-10zm21 0m-558 1v3zm26 0m210 0m25 0-18 22-4 9-1 4v13h1l2-12 7-14 11-13 3-6zm29 0 1 2zm11 0m16 0m82 0m17 0 1 3zm-406 1m225 0m67 0m12 0m4 0m77 0m25 0m17 0 1 3zm41 0m13 0 1 2zm-504 1v10h1v-10zm22 0m16 0m140 0 1 3zm69 0m15 0m19 0m23 0m16 0m8 0 1 2zm4 0m81 0m-402 1 1 2zm10 0m225 0m15 0m44 0 1 2zm125 0 1 2zm4 0m71 0 2 9 1 6 1 17h1v-21l-4-11zm-485 1m224 0m16 0 1 2zm20 0m4 0m33 0m12 0m4 0m77 0m4 0m37 0 1 3zm32 0v5h1v-5zm50 0v5h1v-5zm-290 1m63 0m12 0m4 0m8 0 1 2zm4 0m97 0 1 3zm61 0 1 3zm-482 1 1 2zm108 0 1 4zm123 0m7 0m11 0m20 0m4 0 1 2zm24 0m12 0m16 0m71 0m9 0m20 0m-304 1 1 6 2 2-1-5zm19 0 1 3zm90 0m7 0m11 0m50 0 1 2zm23 0 2 4v-3zm5 0 1 2zm71 0m-374 1m205 0m8 0m11 0m21 0-8 11-3 12 1 14h1l1-16 4-11 5-8zm4 0-8 16-2 6v15l2 9h1l-1-17 2-10 7-16zm42 0m21 0m71 0m16 0 1 3zm20 0v10h1v-10zm-215 1m19 0-11 11-6 11-1 4v16l5 12 9 13 5 7 1-2-11-19-4-12v-17l6-12 8-10zm53 0m12 0m16 0m99 0m96 0 1 3zm-413 1 1 3zm32 0 1 7 1-4zm85 0m7 0m67 0m15 0m13 0m71 0m8 0m124 0v5h1v-5zm-503 1m196 0m8 0m49 0v27l-5 18-1 6v12l3 10 1-3-2-10 1-12 7-22v-12l-3-14zm20 0m23 0 2 4v-3zm5 0m94 0 1 4zm83 0m-483 1m4 0m5 0m58 0 1 2zm133 0m7 0m72 0 1 2zm11 0m17 0 2 4 5 11 2 10 2-4-1-6-6-12zm15 0m63 0 1 2zm19 0 1 3zm45 0 1 2zm49 0-3 6 1 2 3-5zm-499 1m4 0 1 2zm5 0-3 6v9l1 5h1l2-20zm17 0m62 0 1 3zm111 0m8 0m88 0m29 0m-210 1 1 3zm84 0m83 0m36 0m8 0m18 0m142 0 1 2zm-486 1m4 0 1 2zm10 0m12 0 1 2zm77 0 1 3zm95 0m7 0m78 0 3 10 1 7h1v-8l-3-8zm14 0v5l2-3zm9 0 2 5 4 9 1 6v35h1l1-18v-21l-5-13zm39 0m43 0m121 0 1 2zm-510 1 1 2zm91 0 1 2zm256 0m25 0m32 0v13h1v-13zm-408 1m8 0-1 1v7l1 5h1v-13zm10 0v15h1v-15zm12 0v12l7 17 5 10 1-3-9-20-3-16zm170 0m58 0m94 0m25 0m89 0 1 3zm-463 1v5h1v-5zm93 0 1 2zm13 0 1 2zm12 0 1 3zm6 0v7h1v-7zm72 0m17 0m25 0m89 0m23 0m16 0m25 0m119 0 1 2zm-514 1 1 2zm81 0 1 2zm251 0 1 2zm23 0m16 0m8 0m34 0v6h1v-6zm-315 1 1 5 3 3-2-6zm13 0 1 2zm81 0m24 0m88 0v8h1v-8zm23 0m29 0m99 0m47 0 1 2zm11 0m-514 1-1 8 2 7 1-3-1-12zm192 0m49 0m117 0m23 0m-298 1m41 0 1 4zm67 0-6 8-4 11v12l4 11 6 11 4 4-2-5-7-14-1-4v-14l4-12 3-6zm12 0m13 0m41 0m72 0m5 0m25 0m15 0m81 0m12 0 1 2zm35 0m11 0m-400 1 1 2zm89 0m13 0 1 2zm25 0m142 0m-355 1 1 10 4 10 3 4-1-5-4-10-2-9zm92 0 1 3zm120 0 1 2zm17 0m74 0 1 2zm5 0 1 2zm25 0m11 0m83 0m18 0 1 2zm29 0m11 0m-475 1 1 3zm143 0m34 0 1 2zm137 0m10 0m15 0m7 0m83 0 1 2zm34 0m11 0m-506 1 1 3zm109 0 1 2zm65 0m4 0m55 0 1 2zm17 0 1 2zm97 0m10 0m-149 1 1 3zm118 0 1 2zm5 0 1 2zm17 0m20 0m4 0m7 0m29 0 1 3zm39 0m58 0m-407 1 1 2zm17 0 1 3zm5 0 1 3zm46 0m7 0m4 0m16 0m39 0 1 2zm17 0 1 3zm10 0v13h1v-13zm48 0v11h1v-11zm51 0m102 0m6 0m38 0m-471 1 1 2zm77 0 1 2zm62 0 1 2zm4 0 1 2zm59 0 1 2zm64 0 1 4zm60 0m10 0m77 0m57 0 1 2zm-404 1 1 2zm66 0m42 0-4 11v12l4 12 7 11 10 15 2 2-1-5-13-22-4-13-1-12 1-11zm120 0 1 3zm23 0m23 0m72 0m14 0m26 0v6h1v-6zm-451 1 1 3zm39 0 1 2zm98 0 1 2zm4 0 1 2zm16 0m9 0m31 0 1 2zm3 0-1 3v14l5 12 3 4-1-5-4-11-1-11v-6zm14 0v17h1v-17zm37 0 1 3zm47 0 1 3zm19 0 1 2zm9 0m10 0m74 0m58 0m-453 1 1 3v-3zm51 0 1 2zm64 0m124 0v5h1v-5zm86 0m33 0m51 0m43 0m-427 1 1 2zm37 0m59 0 1 2zm4 0-3 9v14l5 12 13 19 1-2-10-15-5-11-1-5v-13l1-8zm16 0m9 0m31 0 1 3zm92 0m30 0m9 0m10 0m72 0m57 0m-465 1 1 2zm167 0m96 0 1 2zm144 0m-391 1 1 2zm24 0 1 2zm20 0 1 2zm6 0 1 2zm59 0m3 0m6 0 1 2zm20 0 1 2zm9 0 1 2zm151 0m4 0m9 0m13 0m66 0m15 0m43 0m-502 1 1 2zm39 0 1 2zm165 0 1 3zm28 0-1 12 3 12 4 7 1-2-5-12-1-17zm94 0 1 2zm117 0 1 2zm39 0 1 2zm19 0m-446 1 1 3v-3zm24 0 1 3zm20 0 1 2zm6 0 1 2zm57 0 1 2zm3 0 1 2zm6 0 1 3zm116 0m3 0 1 3zm46 0v7h1v-7zm10 0 1 2zm7 0m4 0 1 2zm130 0 1 2zm13 0m-523 1m24 0 1 2zm39 0 1 2zm151 0 1 3zm9 0 1 2zm106 0 1 3zm18 0v32h1v-32zm42 0m13 0 1 2zm63 0m-470 1m10 0m112 0 1 2zm6 0 1 2zm6 0 1 3zm97 0-1 4v17l3 9 1-3-2-8v-19zm151 0m4 0 1 2zm83 0m15 0m-480 1 1 2zm5 0 1 3zm21 0m39 0 1 2zm16 0 1 2zm23 0 1 3zm81 0 1 2zm9 0 1 4zm29 0 1 3zm90 0 1 3zm20 0v5h1v-5zm4 0 1 4zm14 0v8h1v-8zm20 0 1 3zm20 0 1 2zm73 0 1 2zm15 0m26 0m5 0m-501 1m110 0 1 2zm6 0 1 3zm-98 1m55 0m49 0 1 4zm57 0v13h1v-13zm97 0 1 2zm44 0 1 4zm50 0m4 0 1 3zm80 0 1 2zm-459 1v5h1v-5zm4 0m20 0m38 0m17 0 1 2zm22 0-1 14-4 14-2 6 3-3 5-10 1-4v-13zm15 0 1 3zm94 0v10h1v-10zm-202 1 1 3zm17 0m86 0m11 0 1 2zm58 0 1 3zm38 0v8h1v-8zm90 0 1 3zm60 0 1 4zm20 0 1 2zm70 0 1 2zm-455 1 1 4zm14 0v7h1v-7zm9 0m37 0 1 2zm17 0 1 2zm109 0v9h1v-9zm143 0 1 4zm44 0 1 2zm24 0 1 2zm71 0m-459 1v6h1v-6zm105 0v5h1v-5zm11 0v7h1v-7zm135 0 1 3zm61 0 1 4zm4 0 1 4zm52 0 1 2zm57 0v8h1v-8zm11 0m3 0 1 2zm6 0 1 2zm13 0m-406 1 1 2zm17 0 1 2zm31 0m11 0 1 3zm346 0m-416 1 1 2zm295 0v12h1v-12zm85 0v8h1v-8zm23 0 1 3zm-391 1 1 2zm17 0 1 2zm164 0 1 3zm61 0v11h1v-11zm62 0v5h1v-5zm78 0v8h1v-8zm-424 1 1 2zm31 0 1 2zm59 0v13h1v-13zm59 0v6h1v-6zm69 0 1 3zm82 0v5h1v-5zm4 0v5h1v-5zm4 0 1 4zm119 0v8h1v-8zm17 0m81 0m-430 1v12h1v-12zm50 0v13l8 16 5 11 1 4v16l2-3 1-5v-9l-4-10-9-16-2-6-1-11zm96 0 1 2zm48 0 1 4zm69 0v5h1v-5zm74 0v10h1v-10zm11 0m-448 1 1 3zm37 0 1 2zm11 0m363 0 1 2zm-421 1 1 4zm16 0 1 2zm156 0v5h1v-5zm285 0m85 0m-547 1 1 2zm10 0 1 3zm43 0 2 13-1 9 2-2 1-10-3-10zm11 0 1 2zm123 0v5h1v-5zm28 0v8h1v-8zm24 0m5 0m22 0 1 4zm101 0v6h1v-6zm68 0 1 5 8 7 2-1-8-7zm-419 1 1 3zm6 0 1 2zm53 0m252 0v15h1v-15zm100 0 1 4zm34 0m-401 1 1 3zm110 0 1 9 7 14 7 11 2 7v12l-1 7 2-2 2-7v-9l-4-12-11-17-4-13zm12 0 1 3zm26 0 1 3zm32 0 1 2zm83 0v10h1v-10zm-300 1 1 5 1-3zm42 0 1 3zm180 0m65 0v5h1v-5zm121 0 1 2zm-425 1 1 2zm5 0 1 2zm6 0 1 2zm161 0 1 3zm141 0 1 4zm42 0m99 0 1 2zm-430 1m31 0v17l2-3v-10zm15 0v9h1v-9zm49 0m58 0 1 3zm5 0 1 5 1-3zm17 0m36 0m5 0m21 0 1 3zm108 0m48 0 1 6 1-3zm5 0 1 2zm4 0 1 2zm-396 1m124 0 1 3zm208 0 1 3zm80 0m-436 1m6 0 1 2zm13 0m148 0 1 2zm30 0m33 0m120 0 1 2zm71 0m-408 1 1 2zm19 0m111 0 1 2zm29 0 1 2zm245 0m43 0m-453 1 1 2zm13 0 1 2zm6 0m142 0 1 2zm36 0 1 2zm95 0 1 2zm58 0 1 3zm61 0m51 0m-455 1 1 2zm19 0 1 2zm116 0m24 0 1 2zm5 0m71 0 1 2zm7 0 1 2zm95 0 1 2zm-343 1 1 3zm13 0 1 2zm6 0m70 0 1 2zm5 0m67 0 1 2zm244 0 1 2zm46 0v7h1v-7zm-315 1 1 3zm6 0 1 2zm24 0m5 0m26 0 1 2zm45 0 1 3zm108 0 1 2zm62 0m6 0m8 0 3 3 8 4 2-1-11-6zm34 0 1 3zm-453 1 1 2zm13 0m6 0 1 3zm136 0m5 0 1 2zm69 0 1 2zm43 0 1 2zm65 0m62 0 2 4 6 5 3 2 3-1-9-6zm7 0m-412 1 1 3zm13 0 1 2zm74 0m40 0 1 3zm15 0 1 2zm29 0m-151 1 1 2zm34 0 1 2zm108 0m5 0m5 0m25 0m5 0 1 2zm34 0 1 2zm6 0 1 2zm102 0m6 0 1 2zm46 0m156 0m-545 1 1 3zm129 0 1 2zm7 0 1 2zm20 0m5 0 1 2zm108 0 1 3zm3 0 1 2zm179 0 1 4zm-444 1 1 3zm116 0m10 0m33 0m25 0m5 0 1 2zm34 0 1 2zm108 0m6 0 1 2zm-350 1v9h1v-9zm25 0 1 2zm27 0 1 2zm68 0m7 0 1 2zm9 0 1 2zm7 0 1 2zm25 0m5 0m69 0 1 2zm37 0 1 5 6 8 7 6 10 4 4 1h7v-1l-15-4-9-6-8-9zm35 0 1 2zm31 0m51 0m-389 1v5h1v-5zm13 0v5h1v-5zm144 0m5 0m29 0m5 0 1 2zm34 0 1 2zm39 0 1 3zm75 0m86 0m31 0m39 0m-379 1 4 18v10l-4 12-3 6 1 2 5-8 3-8 1-6v-9l-4-16zm9 0 1 2zm7 0 1 2zm21 0m5 0m176 0m93 0 1 2 2-1zm11 0 1 2zm-329 1 1 2zm3 0m42 0m9 0m29 0m34 0 1 2zm114 0m126 0m4 0m26 0m-477 1 1 2zm7 0 1 2zm12 0m83 0m12 0m22 0m4 0m5 0m24 0m43 0m34 0 1 2zm76 0m45 0m44 0 6 7 7 9 1-2-6-8-6-6zm24 0m58 0m-456 1m70 0 1 2zm8 0 1 2zm26 0m33 0m231 0m41 0m4 0m-451 1m37 0 1 2zm58 0 1 2zm17 0m31 0m33 0m33 0 1 2zm39 0m121 0m19 0 4 3 11 6 7 7 4 8 2 16h1v-15l-6-12-8-7-12-6zm20 0m71 0m-480 1m93 0m12 0 1 2zm5 0 1 2zm8 0 1 2zm27 0m4 0m10 0 2 5 1-2zm14 0m198 0m39 0m25 0m12 0m4 0m13 0m33 0m-460 1m54 0m23 0m36 0m24 0m76 0m161 0m39 0 1 2zm28 0m3 0m-445 1m61 0 1 2zm14 0 1 2zm8 0 1 2zm60 0m32 0 1 3zm223 0m12 0m17 0 1 2zm-428 1m57 0 1 2zm14 0 1 3zm9 0m28 0m4 0m4 0m14 0m15 0m13 0m256 0 1 2zm30 0m3 0m-370 1 1 2zm8 0 1 2zm24 0m4 0m4 0m29 0m17 0 1 2zm54 0m181 0m12 0 1 2zm-424 1m72 0 2 13v8l-4 13-12 14-9 9-5 11-1 9 1 6h1l3-16 7-11 16-16 3-6 2-9 1-6v-8l-2-9zm23 0m29 0m17 0 1 2zm4 0m28 0m35 0 1 5 2 1-2-6zm24 0m12 0m87 0m24 0m40 0m46 0m18 0m-502 1m41 0m79 0 1 2zm9 0v20l-3 12 2-1 3-8 1-12-2-11zm6 0 1 5 1-3zm8 0 2 10v18l2-3 1-13-3-10zm28 0m4 0m25 0m21 0 1 2zm44 0m134 0m71 0 1 2zm36 0m40 0m-407 1 1 2zm29 0m4 0m13 0 1 2zm4 0m12 0m16 0m73 0m97 0m13 0m63 0m3 0 1 3zm17 0m20 0m40 0m-582 1m3 0m205 0m7 0m5 0 1 2zm25 0m16 0 1 2zm70 0m83 0m166 0m-420 1 1 4zm19 0 1 3zm33 0m13 0 1 2zm4 0m17 0m11 0m76 0m94 0m15 0m38 0m28 0 1 3zm13 0m26 0m-549 1 1 2zm3 0m208 0m7 0m5 0 1 2zm114 0m80 0m66 0m63 0m-368 1 1 3zm34 0 1 2zm3 0m13 0 1 2zm4 0 1 2zm32 0 1 2zm31 0 1 2zm45 0m163 0 1 4zm3 0v19h1v-19zm16 0 1 2zm-521 1m181 0v17l-3 10-4 8 1 3 6-12 2-7v-15zm37 0m5 0 1 2zm22 0m4 0m94 0m74 0m13 0m17 0m36 0m-321 1v12h1v-12zm50 0 1 2zm3 0 1 2zm13 0 1 2zm22 0 1 2zm45 0 1 3v-3zm53 0m132 0m4 0m5 0 1 3zm19 0v8h1v-8zm43 0m35 0m-589 1m37 0m144 0 1 4zm41 0 1 3zm5 0 1 2zm8 0m25 0 1 3zm7 0 1 2zm88 0m79 0m89 0 1 4zm28 0m36 0m-371 1 1 3zm16 0 1 3zm18 0m4 0 1 2zm105 0m95 0m30 0m4 0 1 2zm31 0m-321 1v6h1v-6zm21 0 1 2zm9 0 1 2zm8 0 1 2zm64 0m62 0m73 0m50 0m8 0 1 2zm90 0m-332 1m4 0 1 2zm6 0v14h1v-14zm40 0 1 3v-3zm50 0m13 0m72 0 1 2zm68 0v8h1v-8zm-521 1 1 2zm10 0m55 0 4 1zm134 0v11h1v-11zm41 0v5h1v-5zm6 0 1 3zm4 0 1 3zm133 0m107 0m13 0 1 2zm3 0m-501 1m229 0v11h1v-11zm20 0v5h1v-5zm131 0m69 0 1 2zm57 0 1 3zm-510 1m5 0m75 0m75 0m68 0v7h1v-7zm13 0v8h1v-8zm32 0 1 4zm4 0v12h1v-12zm47 0m171 0m48 0v7h1v-7zm71 0 4 1zm-612 1m4 0m150 0m95 0v5h1v-5zm74 0m156 0m27 0 1 2zm102 0m-528 1m68 0m105 0 1 4zm71 0m30 0m103 0 1 2zm5 0v5h1v-5zm4 0v5h1v-5zm14 0m14 0m111 0m-547 1v1h5v-1zm21 0m62 0m76 0 1 3zm85 0m23 0m32 0m247 0m-527 1-7 7-6 11-4 12-1 6v11h1l3-20 5-12 6-9 5-6zm56 0m124 0v10h1v-10zm105 0m96 0 1 3zm23 0m26 0 1 2zm7 0 1 3zm88 0m-603 1m244 0-1 1v7h1l1-8zm85 0m167 0m-495 1m128-1-10 4-10 9-4 13v20l1 6h1v-17l2-12 5-10 9-8 9-4zm122 1v12h1v-12zm51 0 1 4zm28 0m195 0v7l2 4-1-11zm-470 1 4 1zm129 0 1 2zm276 0 1 4zm-328 1m140 0v5h1v-5zm147 0m-289 1m71 0 1 4zm219 0m123 0v5h1v-5zm66 0m-481 1m98 0 1 2zm10 0-5 9-8 8-14 10-9 9-5 10-2 10v8l1 5h1l1-15 4-11 5-8 10-9 12-9 7-8 3-6zm65 0v11l2 3-1-14zm120 0m43 0v7h1v-7zm33 0v7h1v-7zm32 0 1 7 1-3zm78 0m-481 1m46 0m11 0m56 0m222 0v5h1v-5zm144 0m-550 1v1h6v-1zm40 0m29 0m88 0 1 3zm68 0 1 2zm109 0m34 0m181 0m-516 1m6 0m28 0m9 0m69 0 1 3zm42 0 1 3zm148 0m34 0m44 0v6h1v-6zm134 0m-515 1m6 0m28 0m8 0m40 0-20 16-6 8-3 7-1 5v8l3 11 5 9 2 1-3-9v-13l3-10 6-10 2-3-5 1-7 8-3 9v3h-2l4-13 9-10 12-12 6-5zm38 0 1 3zm31 0m33 0 1 2zm4 0m150 0m-339 1m5 0-6 7 1 2 7-8zm29 0m7 0m84 0 1 2zm46 0 1 3zm22 0m27 0v5h1v-5zm120 0m118 0 1 3zm-469 1m10 0m34 0m6 0-7 8-3 8v17l3 9 1-3-2-8v-13l3-9 7-8zm74 0 1 3zm38 0m4 0 1 2zm135 0 5 4 7 7v-3l-7-7zm17 0m-309 1m34 0m101 0 1 2zm51 0m8 0m116 0m68 0 1 4zm65 0 1 3zm4 0 1 3zm-448 1 1 2zm34 0-5 6-2 6v9h1l3-12 4-7zm71 0 1 2zm18 0m4 0m26 0m4 0m188 0m37 0 1 4zm-392 1m125 0 1 2zm20 0m51 0m276 0 1 2zm16 0 1 2zm-479 1m14 0m91 0 1 2zm18 0m4 0m26 0m4 0m11 0 1 2zm6 0m51 0 1 6 1-3zm110 0m12 0m99 0 1 5 1-3zm4 0 1 2zm-460 1m9 0 1 2zm14 0 1 2zm102 0 1 2zm117 0m4 0m100 0m51 0 1 3zm32 0m-361 1m46 0m22 0m111 0m111 0m17 0m16 0 1 3zm3 0 1 3zm67 0 1 2zm13 0m16 0 1 2zm-491 1m4 0m5 0-4 8-2 10v7l2-4 2-11 3-10zm14 0m44 0m6 0m36 0m16 0 1 2zm8 0m33 0m83 0m104 0m-340 1-2 3 1 3 2-6zm9 0m44 0m5 0m37 0 1 2zm6 0m64 0m67 0m5 0m110 0m103 0 1 2zm13 0m-477 1m4 0 1 2zm18 0-2 5 3-3zm43 0-4 2-3 4-1 4v7h1l1-6 1 16h1l2-14 1-5 3 1 4-8-6 3 2-4zm6 0m54 0 1 2zm8 0m100 0 1 2zm14 0m5 0m99 0m4 0m39 0 1 3zm6 0m60 0 1 2zm33 0 1 2zm-466 1m34 0m47 0m70 0m61 0 1 2zm9 0m114 0 1 2zm16 0 1 3zm19 0m68 0 1 2zm13 0m-479 1m27 0 1 2zm81 0m17 0-6 10-5 13-1 4v13h1l2-15 5-13 5-10zm8 0m117 0m70 0 2 6 1-3zm33 0m4 0m45 0 1 2zm60 0 1 2zm33 0 1 2zm-491 1m103 0m71 0m57 0m6 0m10 0m6 0m139 0 1 2zm3 0m68 0m38 0m-479 1-5 9-2 5v14l1 5h1l1-17 4-12 1-4zm66 0m14 0m146 0m6 0m47 0m49 0m4 0m105 0 1 2zm5 0 1 3v-3zm28 0 1 2zm-497 1m4 0 1 2zm9 0 1 2zm8 0-3 7 1 4 3-8zm71 0m14 0 1 2zm22 0 1 2zm115 0m11 0 12 14 5 11 1 4v16l-1 9 2-3 1-5v-20l-4-11-7-9-7-6zm6 0m138 0 1 2zm3 0m3 0m52 0m51 0m-416 1m217 0m48 0m4 0 1 3zm5 0 1 2zm40 0m60 0m33 0m-486 1 1 3zm78 0m15 0m22 0 1 2zm136 0m32 0m14 0m72 0 1 3zm18 0m58 0 1 2zm9 0m5 0m13 0m-510 1m29 0 1 4zm86 0m15 0m160 0m56 0m4 0 1 3zm33 0 1 3zm49 0m66 0m13 0m14 0m9 0m-405 1m23 0 1 2zm139 0m135 0m67 0m6 0m-462 1-1 4v15h1l1-19zm56 0 1 3zm35 0m164 0m5 0m26 0m14 0m50 0v13h1v-13zm40 0m57 0m10 0m6 0m13 0m13 0m-399 1m24 0 1 2zm36 0m80 0m26 0m54 0m4 0 1 4zm16 0m8 0v14h1v-14zm33 0 1 3zm73 0m14 0m6 0m-473 1v10h1v-10zm98 0m59 0m52 0 1 3zm57 0m30 0m14 0m46 0v6h1v-6zm101 0m11 0m6 0m25 0m8 0 1 2zm-410 1m25 0 1 2zm4 0m29 0m112 0m187 0m15 0m-430 1v8h1v-8zm25 0v5h1v-5zm32 0m57 0m88 0m7 0m20 0 1 2zm4 0m25 0m14 0m65 0m82 0m12 0m-375 1m26 0 1 2zm4 0m26 0m79 0m12 0 1 2zm139 0m74 0m16 0m-377 1v3zm55 0m61 0-1 28-7 17-2 9v6l2 1 3-16 5-12 2-5v-23l-1-5zm39 0m20 0m4 0m25 0 1 2zm14 0m12 0v9h1v-9zm11 0 1 3zm42 0m28 0m54 0m13 0m-457 1v11h1v-11zm92 0m13 0 1 2zm4 0m23 0m53 0 1 3zm43 0 1 10h1v-9zm7 0v9l-3 7-5 5-17 6-5 3h-3l-6 8-4 8-2 6v6l2-4 8-15 5-6 10-5 11-4 8-5 3-5v-12zm20 0 1 2zm68 0v9h1v-9zm6 0v7h1v-7zm38 0m74 0m4 0m13 0m-328 1m86 0m43 0m16 0m51 0m161 0m-439 1v6h1v-6zm29 0m10 0m21 0m20 0-9 7-5 8-1 7 2-3 7-11 8-7zm118 0m10 0 1 2zm42 0 1 2zm65 0m5 0m78 0m15 0m-450 1m65 0-5 8-1 3v15h1l1-14 5-10zm14 0m14 0 1 2zm102 0m54 0 1 2zm24 0 1 2zm42 0 1 4zm38 0m79 0m4 0m15 0m-376 1m100 0 1 31 4-5v-2h-2v-13l-2-11zm31 0 1 3zm59 0m93 0m-280 1 1 2zm14 0 1 3zm4 0m75 0 1 3zm10 0-1 8v15h1l1-5v-18zm28 0v6h1v-6zm23 0 1 2zm5 0m9 0m4 0 1 3zm100 0m4 0m100 0m-380 1m214 0v6h1v-6zm42 0m104 0m21 0m-476 1v6h1v-6zm35 0 1 4zm63 0 1 3zm18 0 1 2zm101 0v5h1v-5zm42 0m9 0 1 2zm104 0m88 0m-366 1 1 2zm118 0v14h1v-14zm60 0v5h1v-5zm23 0v6h1v-6zm58 0 1 2zm24 0m-357 1v8h1v-8zm92 0 1 3zm24 0m57 0v5h1v-5zm7 0m60 0m109 0m4 0m5 0m102 0m-428 1 1 2zm4 0 1 4zm41 0v14h1v-14zm18 0 1 3zm123 0 1 2zm80 0 1 2zm12 0v5h1v-5zm13 0 1 2zm36 0m102 0m-495 1 1 3zm107 0v14h1v-14zm277 0m10 0m102 0m-221 1m114 0m6 0m102 0m-479 1 1 4zm32 0 1 2zm75 0 1 4zm21 0m105 0m50 0v7h1v-7zm53 0m4 0 1 2zm27 0m5 0m6 0m-188 1v19h1v-19zm79 0v11h1v-11zm61 0m33 0m10 0m-320 1 1 3zm57 0v6h1v-6zm148 0m-261 1 1 3zm43 0 1 2zm40 0 1 3zm247 0 1 3zm14 0m28 0m-352 1v8l2 6 1-3-2-11zm11 0 1 3zm5 0 1 2zm92 0m206 0m-281 1m240 0 1 2zm52 0m-301 1m13 0m324 0m-367 1 1 9 1-4-1-5zm293 0m24 0m4 0m11 0m-345 1 1 2zm3 0m33 0m8 0m-13 1 1 3zm26 0m274 0m4 0m11 0m97 0m-398 1m246 0m56 0m-346 1 1 2zm3 0m54 0m62 0v6h1v-6zm-38 1 1 4zm24 0 1 4zm33 0m6 0m203 0m100 0m-416 1m42 0 1 3zm18 0 1 2zm45 0m196 0m-221 1 1 3zm24 0m6 0m142 0m-144 1m210 0m102 0m-446 1m9 0 1 2zm68 0 1 2zm10 0m14 0 1 3zm32 0m131 0m183 0m-378 1m4 0m59 0m13 0m132 0m171 0m-438 1 1 3zm6 0 1 2zm62 0m10 0m43 0m215 0m97 0m6 0m-347 1 1 3zm28 0m121 0m59 0m93 0m41 0m-427 1 1 2zm62 0m50 0m56 0 1 3zm65 0m195 0m-434 1 1 2zm117 0m25 0m156 0m39 0m98 0m-428 1 1 2zm85 0 1 2zm24 0m8 0m15 0m38 0 1 3zm61 0m-123 1v3zm7 0m13 0m101 0m61 0m41 0m-330 1 1 2zm47 0 2 4v-3zm38 0 1 2zm28 0m10 0-12 6-4 5-2 1-1 3v19h1l2-16 5-8 5-4 10-5zm83 0m21 0m89 0m15 0m-219 1m53 0m3 0 1 2zm32 0-9 4-6 7-1 5 4-5 5-5 8-4 3-2zm26 0m62 0m9 0 1 4zm-296 1 1 2zm104 0v3zm6 0m114 0m62 0m45 0m-246 1 1 2zm7 0m17 0m18 0m89 0m6 0m-221 1 1 2zm48 0m59 0m105 0m8 0m97 0m14 0m-282 1m57 0m15 0m97 0m16 0 1 3zm49 0m35 0m90 0m-358 1 2 4v-3zm35 0m34 0m90-1-13 4-8 7-4 8-1 4v8l2 7 1-3v-13l4-7 8-7 14-7zm7 1m66 0m50 0m-227 1m12 0m97 0m80 0 1 2zm-179 1m97 0m21 0 1 2zm47 0m35 0m5 0m13 0m71 0m-300 1m10 0m13 0m83 0m20 0m49 0m-226 1m60 0m119 0 1 2zm46 0m43 0m13 0 1 2zm-280 1 1 3v-3zm57 0 1 2 1-2zm94 0m72 0m16 0m24 0m5 0m-201 1m82 0m28 0 1 2zm104 0 1 3zm-225 1m91 0m73 0m18 0m31 0 1 2zm-214 1m121 0 1 2zm42 0m47 0m-211 1m90 0m72 0m21 0m45 0v5h1v-5zm-107 1m91 0 1 2zm4 0m-256 1m39 0m74 0-2 6v14l2 4v-16l1-8zm14 0m95 0m-96 1m34 0m97 0 1 3zm-256 1 1 2zm124 0m34 0m94 0 1 2zm-129 1m96 0m-118 1v7h1v-7zm21 0 1 2zm96 0m50 0v6h1v-6zm37 0m-304 1 1 4zm216 0m36 0v7h1v-7zm53 0m-227 1m42 0m95 0m83 0m-221 1m137 0m42 0 1 4zm43 0m-227 1m4 0 1 2zm43 0m94 0m-142 1m141 0m-137 1m43 0 1 2zm76 0m-189 1v6h1v-6zm187 0m17 0m20 0m37 0 1 4zm-76 1m18 0m47 0 1 3zm-207 1m41 0m28 0v5h1v-5zm71 0m18 0m22 0m-42 1m51 0m14 0m-163 1 1 4zm96 0m77 0m-214 1 1 2zm136 0m18 0m25 0m28 0 1 2zm11 0 1 2zm-84 1m44 0m11 0m-203 1 1 4zm147 0m-1 1m17 0m39 0m18 0m11 0m-177 1v12h1v-12zm3 0v9h1v-9zm28 0 1 2zm35 0m6 0m6 0m7 0m6 0m39 0m35 0m-75 1m16 0m23 0m18 0m-82 1 1 3zm6 0m18 0v3zm-142 1 1 2zm42 0m7 0m80 0m7 0m20 0m23 0m6 0m14 0m-122 1 1 3zm78 0m29 0m-125 1m64 0 1 2zm5 0 1 2zm12 0 1 2zm-139 1 1 2zm40 0v5h1v-5zm41 0 1 2zm35 0 1 4zm18 0m39 0m7 0m-103 1 1 2zm61 0-1 6 2-3zm57 0m-69 1 1 3zm4 0m3 0 1 3zm37 0m7 0m17 0m-135 1 1 3zm23 0m39 0v7h1v-7zm28 0m19 0m7 0m18 0m-115 1m70 0m19 0m25 0m-136 1 1 2zm27 0m82 0m7 0m-112 1 1 3zm19 0m50 0v7h1v-7zm18 0m17 0m-111 1 1 3zm110 0m6 0m-121 1 1 2zm32 0m71 0m11 0m-105 1 1 2zm4 0 1 2z"/>
<path transform="translate(411,60)" d="m0 0h37l22 3 19 5 16 7 1 3-5-1-19-6-25-5-26-2-28 1-25 2v-2l16-3z"/>
<path transform="translate(466,131)" d="m0 0 8 1 24 8 20 9 16 10 12 11-1 2-15-9-23-12-23-10-17-6-2-3z"/>
<path transform="translate(413,88)" d="m0 0h32l24 4 21 6 16 7 14 8 3 2-1 3-17-9-22-8-24-6-20-3-26-2z"/>
<path transform="translate(450,265)" d="m0 0h5v2h4l9-1v2l-18 5 11-2h5v2l-20 5h-29l-3-1v-2h18v-3l-19-1v-2l2-1 28-2zm-6 4 4 1zm-7 1v1h6v-1zm-3 4v1h9v-1z"/>
<path transform="translate(614,39)" d="m0 0 6 2 12 10 12 6 15 5 16 10 8 6-2 1-18-8-21-8-12-7-12-11-4-5z"/>
<path transform="translate(248,598)" d="m0 0v3l-7 10-5 11-2 8 1 4 1 2 2 15 4 13 3 10-2 1-6-12-7-12-1-3v-13l3-12 4-9 7-11z"/>
<path transform="translate(336,285)" d="m0 0 11 1 15 5 5 3v4l3 1-1 3-22-8v-2h6l-17-5z"/>
<path transform="translate(320,408)" d="m0 0 1 3-10 13-9 8-11 5v-3l11-7 8-7 9-11z"/>
<path transform="translate(308,249)" d="m0 0h5v3l-9 1h11l1 3-14 1-12 2 1-3 7-1-1-3 6-2z"/>
<path transform="translate(371,235)" d="m0 0h21l19 2v3l-34-2-7-1z"/>
<path transform="translate(322,186)" d="m0 0h3v2l-23 10-16 9-3-1 14-9 19-9z"/>
<path transform="translate(311,411)" d="m0 0 2 1-9 11-11 8-6 3h-2l1-3 13-8z"/>
<path transform="translate(308,407)" d="m0 0 2 1-7 8-10 9-9 5-4-1 14-9 12-11z"/>
<path transform="translate(292,407)" d="m0 0 3 1-10 8-15 8-5 1 1-3 19-10z"/>
<path transform="translate(287,404)" d="m0 0v3l-13 8-12 6h-2l1-3 19-10z"/>
<path transform="translate(297,410)" d="m0 0h2l-2 4-10 8-12 6-1-3 13-7z"/>
<path transform="translate(280,396)" d="m0 0v3l-16 9-8 4h-2l1-3z"/>
<path transform="translate(281,402)" d="m0 0 2 1-5 4-20 10-1-3 17-9z"/>
<path transform="translate(266,385)" d="m0 0 1 3-20 10h-2l1-3 15-8z"/>
<path transform="translate(272,394)" d="m0 0h2v2l-18 10-5 2v-3z"/>
<path transform="translate(269,389)" d="m0 0h2l-1 3-16 9-6 1v-2z"/>
<path transform="translate(264,381)" d="m0 0 1 3-18 8h-3l1-3z"/>
<path transform="translate(365,179)" d="m0 0h12v2l-3 1-16 1-3-1v-2z"/>
<path transform="translate(362,175)" d="m0 0 5 1-1 2-8 1h-12v-2z"/>
<path transform="translate(574,262)" d="m0 0 2 2-10 5-1-3z"/>
<path transform="translate(443,128)" d="m0 0h8l4 1v2h-7l-5-2z"/>
<path transform="translate(446,137)" d="m0 0h5l1 3-6-1z"/>
<path transform="translate(453,138)" d="m0 0h5v3l-5-1z"/>
<path transform="translate(117,726)" d="m0 0 1 3-2 1z"/>
<path transform="translate(300,394)" d="m0 0h2v2l-3 1z"/>
<path transform="translate(374,406)" d="m0 0h2l-1 3z"/>
<path transform="translate(298,360)" d="m0 0 1 2-2 2z"/>
<path transform="translate(118,729)" d="m0 0"/>
<path transform="translate(122,620)" d="m0 0"/>
<path transform="translate(433,401)" d="m0 0 2 2h-2z"/>
<path transform="translate(304,396)" d="m0 0 2 1-2 1z"/>
<path transform="translate(661,159)" d="m0 0"/>
<path transform="translate(320,437)" d="m0 0"/>
<path transform="translate(686,81)" d="m0 0 2 1z"/>
<path transform="translate(683,79)" d="m0 0 2 1z"/>
<path transform="translate(249,597)" d="m0 0"/>
<path transform="translate(79,374)" d="m0 0"/>
<path transform="translate(79,371)" d="m0 0"/>
<path transform="translate(692,85)" d="m0 0"/>
<path transform="translate(690,84)" d="m0 0"/>
<path transform="translate(689,83)" d="m0 0"/>
<path transform="translate(688,82)" d="m0 0"/>
<path transform="translate(685,80)" d="m0 0"/>
<path transform="translate(198,69)" d="m0 0"/>
<path transform="translate(254,38)" d="m0 0"/>
<path transform="translate(316,15)" d="m0 0"/>
<path transform="translate(522,8)" d="m0 0"/>
</svg>
